SplineFontDB: 3.0
FontName: Sahel
FullName: Sahel
FamilyName: Sahel
Weight: Regular
Copyright: Copyright (c) 2016 by Saber Rastikerdar. All Rights Reserved.\nBased on DejaVu font.\nNon-Arabic(Latin) glyphs and data are imported from Open Sans font under the Apache License, Version 2.0.
Version: 2.0.1
ItalicAngle: 0
UnderlinePosition: -500
UnderlineWidth: 100
Ascent: 1638
Descent: 410
InvalidEm: 0
LayerCount: 2
Layer: 0 0 "Back" 1
Layer: 1 0 "Fore" 0
PreferredKerning: 4
XUID: [1021 502 1027637223 5453938]
UniqueID: 4028628
UseUniqueID: 1
FSType: 0
OS2Version: 1
OS2_WeightWidthSlopeOnly: 0
OS2_UseTypoMetrics: 1
CreationTime: 1431850356
ModificationTime: 1565704192
PfmFamily: 33
TTFWeight: 400
TTFWidth: 5
LineGap: 0
VLineGap: 0
OS2TypoAscent: 2200
OS2TypoAOffset: 0
OS2TypoDescent: -1000
OS2TypoDOffset: 0
OS2TypoLinegap: 0
OS2WinAscent: 2200
OS2WinAOffset: 0
OS2WinDescent: 1000
OS2WinDOffset: 0
HheadAscent: 2200
HheadAOffset: 0
HheadDescent: -1000
HheadDOffset: 0
OS2CapHeight: 1638
OS2XHeight: 1082
OS2Vendor: '    '
Lookup: 4 1 1 "'ccmp' Glyph Composition/Decomposition in Arabic lookup 0" { "'ccmp' Glyph Composition/Decomposition in Arabic lookup 0 subtable"  } ['ccmp' ('DFLT' <'dflt' > 'arab' <'FAR ' 'KUR ' 'SND ' 'URD ' 'dflt' > ) ]
Lookup: 1 9 0 "'fina' Terminal Forms in Arabic lookup 1" { "'fina' Terminal Forms in Arabic lookup 1 subtable"  } ['fina' ('DFLT' <'dflt' > 'arab' <'FAR ' 'KUR ' 'SND ' 'URD ' 'dflt' > ) ]
Lookup: 1 9 0 "'medi' Medial Forms in Arabic lookup 2" { "'medi' Medial Forms in Arabic lookup 2 subtable"  } ['medi' ('DFLT' <'dflt' > 'arab' <'FAR ' 'KUR ' 'SND ' 'URD ' 'dflt' > ) ]
Lookup: 1 9 0 "'init' Initial Forms in Arabic lookup 3" { "'init' Initial Forms in Arabic lookup 3 subtable"  } ['init' ('DFLT' <'dflt' > 'arab' <'FAR ' 'KUR ' 'SND ' 'URD ' 'dflt' > ) ]

StartChar: commaarabic
Encoding: 1548 1548 2
Width: 748
GlyphClass: 2
Flags: HW
LayerCount: 2
Fore
SplineSet
359 -1 m 0
 253 -1 202 61 202 173 c 0
 202 374 306 516 496 630 c 0
 540 657 573 630 528 596 c 0
 450 537 355 427 355 301 c 1
 453 295 505 250 505 143 c 0
 505 56 442 -1 359 -1 c 0
EndSplineSet
EndChar

StartChar: uni0615
Encoding: 1557 1557 3
Width: 0
GlyphClass: 4
Flags: HW
AnchorPoint: "Anchor-10" 702 1946 mark 0
AnchorPoint: "Anchor-9" 702 1946 mark 0
AnchorPoint: "Anchor-1" 554 2839 basemark 0
AnchorPoint: "Anchor-1" 702 1946 mark 0
LayerCount: 2
Fore
SplineSet
998 2475 m 0
 1109 2475 1170 2406 1170 2284 c 0
 1170 2080 967 2018 727 2018 c 2
 420 2018 l 1
 367 2118 l 1
 504 2118 l 1
 504 2789 l 1
 606 2789 l 1
 606 2169 l 1
 747 2373 878 2475 998 2475 c 0
1070 2274 m 0
 1070 2330 1045 2358 996 2358 c 0
 915 2358 808 2278 676 2118 c 1
 778 2118 l 2
 931 2118 1070 2150 1070 2274 c 0
EndSplineSet
EndChar

StartChar: uni061B
Encoding: 1563 1563 4
Width: 748
GlyphClass: 2
Flags: HW
LayerCount: 2
Fore
SplineSet
356 519 m 0
 250 519 199 581 199 693 c 0
 199 894 303 1036 493 1150 c 0
 537 1177 570 1150 525 1116 c 0
 447 1057 352 947 352 821 c 1
 450 815 502 770 502 663 c 0
 502 576 439 519 356 519 c 0
352 21 m 0
 277 21 214 84 214 159 c 0
 214 234 277 297 352 297 c 0
 428 297 489 235 489 159 c 0
 489 84 427 21 352 21 c 0
EndSplineSet
EndChar

StartChar: uni061F
Encoding: 1567 1567 5
Width: 914
GlyphClass: 2
Flags: HW
LayerCount: 2
Fore
SplineSet
521 21 m 0
 446 21 383 84 383 159 c 0
 383 234 446 297 521 297 c 0
 597 297 658 235 658 159 c 0
 658 84 596 21 521 21 c 0
478 1224 m 0
 364 1224 276 1169 276 1051 c 0
 276 978 307 945 414 846 c 2
 456 807 l 2
 544 724 588 639 588 550 c 2
 588 527 l 2
 588 507 578 496 560 496 c 2
 500 496 l 2
 482 496 474 505 474 523 c 2
 474 544 l 2
 474 596 427 657 333 729 c 2
 256 788 l 2
 152 867 101 958 101 1064 c 0
 101 1278 253 1411 466 1411 c 0
 658 1411 809 1276 809 1060 c 0
 809 1042 809 1022 807 1005 c 1
 729 1004 l 1
 702 1150 618 1224 478 1224 c 0
EndSplineSet
EndChar

StartChar: uni0621
Encoding: 1569 1569 6
Width: 891
GlyphClass: 2
Flags: HW
AnchorPoint: "Anchor-7" 459 -88 basechar 0
AnchorPoint: "Anchor-10" 437 1114 basechar 0
LayerCount: 2
Fore
SplineSet
784 316 m 2
 768 186 l 1
 561 157 339 95 105 3 c 1
 106 176 l 1
 274 235 l 1
 208 292 175 360 175 439 c 0
 175 608 299 755 484 755 c 0
 577 755 657 724 722 662 c 1
 682 534 l 1
 603 561 541 575 496 575 c 0
 381 575 315 469 315 442 c 0
 315 406 451 303 491 303 c 0
 523 303 579 316 628 329 c 2
 729 355 l 2
 784 369 790 365 784 316 c 2
EndSplineSet
EndChar

StartChar: uni0627
Encoding: 1575 1575 12
Width: 464
GlyphClass: 2
Flags: HW
AnchorPoint: "Anchor-10" 208 1514 basechar 0
AnchorPoint: "Anchor-7" 215 -224 basechar 0
LayerCount: 2
Fore
SplineSet
121 1319 m 1
 266 1406 l 2
 283 1416 292 1407 294 1378 c 0
 309 1141 317 923 317 722 c 0
 317 298 313 80 307 67 c 0
 283 15 239 -12 177 -13 c 1
 171 671 152 1115 121 1319 c 1
EndSplineSet
Substitution2: "'fina' Terminal Forms in Arabic lookup 1 subtable" uniFE8E
EndChar

StartChar: uni062D
Encoding: 1581 1581 18
Width: 1296
GlyphClass: 2
Flags: HW
AnchorPoint: "Anchor-7" 562 -813 basechar 0
AnchorPoint: "Anchor-10" 591 1253 basechar 0
LayerCount: 2
Fore
SplineSet
786 -485 m 4
 903 -485 1029 -476 1165 -458 c 4
 1178 -456 1184 -461 1182 -472 c 6
 1156 -575 l 6
 1146 -612 1116 -633 1067 -640 c 4
 998 -649 911 -655 808 -655 c 4
 409 -655 123 -526 123 -164 c 4
 123 218 392 484 775 560 c 1
 652 591 454 628 389 628 c 0
 318 628 250 588 185 509 c 1
 99 549 l 1
 161 699 239 815 385 815 c 0
 464 815 559 786 673 751 c 0
 813 708 984 657 1203 636 c 0
 1215 635 1218 629 1213 616 c 2
 1144 453 l 1
 726 441 270 243 270 -134 c 4
 270 -368 442 -485 786 -485 c 4
EndSplineSet
Substitution2: "'init' Initial Forms in Arabic lookup 3 subtable" uniFEA3
Substitution2: "'medi' Medial Forms in Arabic lookup 2 subtable" uniFEA4
Substitution2: "'fina' Terminal Forms in Arabic lookup 1 subtable" uniFEA2
EndChar

StartChar: uni062F
Encoding: 1583 1583 20
Width: 1020
GlyphClass: 2
Flags: HW
AnchorPoint: "Anchor-10" 429 1206 basechar 0
AnchorPoint: "Anchor-7" 401 -227 basechar 0
LayerCount: 2
Fore
SplineSet
231 326 m 1
 231 314 232 302 233 292 c 0
 244 204 305 180 418 180 c 0
 655 180 774 226 774 318 c 0
 774 445 570 634 354 778 c 1
 418 949 l 2
 425 967 443 965 471 943 c 0
 768 711 916 510 916 341 c 0
 916 113 691 0 419 0 c 0
 210 0 106 76 106 228 c 0
 106 261 111 297 120 337 c 1
 231 326 l 1
EndSplineSet
PairPos2: "'kern' Horizontal Kerning lookup 0 subtable 4" uni06AF dx=-120 dy=0 dh=-120 dv=0 dx=0 dy=0 dh=0 dv=0
PairPos2: "'kern' Horizontal Kerning lookup 0 subtable 4" uniFB94 dx=-120 dy=0 dh=-120 dv=0 dx=0 dy=0 dh=0 dv=0
PairPos2: "'kern' Horizontal Kerning lookup 0 subtable 4" uni06A9 dx=-120 dy=0 dh=-120 dv=0 dx=0 dy=0 dh=0 dv=0
PairPos2: "'kern' Horizontal Kerning lookup 0 subtable 4" uniFB90 dx=-120 dy=0 dh=-120 dv=0 dx=0 dy=0 dh=0 dv=0
Substitution2: "'fina' Terminal Forms in Arabic lookup 1 subtable" uniFEAA
EndChar

StartChar: uni0631
Encoding: 1585 1585 22
Width: 752
GlyphClass: 2
Flags: HW
AnchorPoint: "Anchor-7" 350 -718 basechar 0
AnchorPoint: "Anchor-10" 419 1005 basechar 0
LayerCount: 2
Fore
SplineSet
528 529 m 17
 623 389 667 256 667 116 c 0
 667 -378 180 -537 107 -537 c 4
 91 -537 73 -526 58 -508 c 6
 19 -459 l 6
 3 -437 -14 -409 16 -401 c 4
 311 -320 517 -156 517 71 c 0
 517 162 479 261 402 370 c 1
 528 529 l 17
EndSplineSet
PairPos2: "'kern' Horizontal Kerning lookup 0 subtable 0" uni067E dx=-128 dy=0 dh=-128 dv=0 dx=0 dy=0 dh=0 dv=0
PairPos2: "'kern' Horizontal Kerning lookup 0 subtable 0" uniFB56 dx=-128 dy=0 dh=-128 dv=0 dx=0 dy=0 dh=0 dv=0
PairPos2: "'kern' Horizontal Kerning lookup 0 subtable 0" uni06AF dx=-235 dy=0 dh=-235 dv=0 dx=0 dy=0 dh=0 dv=0
PairPos2: "'kern' Horizontal Kerning lookup 0 subtable 0" uniFB94 dx=-235 dy=0 dh=-235 dv=0 dx=0 dy=0 dh=0 dv=0
PairPos2: "'kern' Horizontal Kerning lookup 0 subtable 0" uni0622 dx=-150 dy=0 dh=-150 dv=0 dx=0 dy=0 dh=0 dv=0
PairPos2: "'kern' Horizontal Kerning lookup 0 subtable 0" uni0627 dx=-150 dy=0 dh=-150 dv=0 dx=0 dy=0 dh=0 dv=0
PairPos2: "'kern' Horizontal Kerning lookup 0 subtable 0" uni0628 dx=-128 dy=0 dh=-128 dv=0 dx=0 dy=0 dh=0 dv=0
PairPos2: "'kern' Horizontal Kerning lookup 0 subtable 0" uniFE91 dx=-53 dy=0 dh=-53 dv=0 dx=0 dy=0 dh=0 dv=0
PairPos2: "'kern' Horizontal Kerning lookup 0 subtable 0" uni0629 dx=-128 dy=0 dh=-128 dv=0 dx=0 dy=0 dh=0 dv=0
PairPos2: "'kern' Horizontal Kerning lookup 0 subtable 0" uni062A dx=-128 dy=0 dh=-128 dv=0 dx=0 dy=0 dh=0 dv=0
PairPos2: "'kern' Horizontal Kerning lookup 0 subtable 0" uniFE97 dx=-128 dy=0 dh=-128 dv=0 dx=0 dy=0 dh=0 dv=0
PairPos2: "'kern' Horizontal Kerning lookup 0 subtable 0" uni062B dx=-128 dy=0 dh=-128 dv=0 dx=0 dy=0 dh=0 dv=0
PairPos2: "'kern' Horizontal Kerning lookup 0 subtable 0" uniFE9B dx=-128 dy=0 dh=-128 dv=0 dx=0 dy=0 dh=0 dv=0
PairPos2: "'kern' Horizontal Kerning lookup 0 subtable 0" uniFE9F dx=-128 dy=0 dh=-128 dv=0 dx=0 dy=0 dh=0 dv=0
PairPos2: "'kern' Horizontal Kerning lookup 0 subtable 0" uniFEA3 dx=-128 dy=0 dh=-128 dv=0 dx=0 dy=0 dh=0 dv=0
PairPos2: "'kern' Horizontal Kerning lookup 0 subtable 0" uniFEA7 dx=-128 dy=0 dh=-128 dv=0 dx=0 dy=0 dh=0 dv=0
PairPos2: "'kern' Horizontal Kerning lookup 0 subtable 0" uni062F dx=-128 dy=0 dh=-128 dv=0 dx=0 dy=0 dh=0 dv=0
PairPos2: "'kern' Horizontal Kerning lookup 0 subtable 0" uni0630 dx=-128 dy=0 dh=-128 dv=0 dx=0 dy=0 dh=0 dv=0
PairPos2: "'kern' Horizontal Kerning lookup 0 subtable 0" uni0633 dx=-128 dy=0 dh=-128 dv=0 dx=0 dy=0 dh=0 dv=0
PairPos2: "'kern' Horizontal Kerning lookup 0 subtable 0" uniFEB3 dx=-128 dy=0 dh=-128 dv=0 dx=0 dy=0 dh=0 dv=0
PairPos2: "'kern' Horizontal Kerning lookup 0 subtable 0" uni0634 dx=-128 dy=0 dh=-128 dv=0 dx=0 dy=0 dh=0 dv=0
PairPos2: "'kern' Horizontal Kerning lookup 0 subtable 0" uniFEB7 dx=-128 dy=0 dh=-128 dv=0 dx=0 dy=0 dh=0 dv=0
PairPos2: "'kern' Horizontal Kerning lookup 0 subtable 0" uni0635 dx=-128 dy=0 dh=-128 dv=0 dx=0 dy=0 dh=0 dv=0
PairPos2: "'kern' Horizontal Kerning lookup 0 subtable 0" uniFEBB dx=-128 dy=0 dh=-128 dv=0 dx=0 dy=0 dh=0 dv=0
PairPos2: "'kern' Horizontal Kerning lookup 0 subtable 0" uni0636 dx=-128 dy=0 dh=-128 dv=0 dx=0 dy=0 dh=0 dv=0
PairPos2: "'kern' Horizontal Kerning lookup 0 subtable 0" uniFEBF dx=-128 dy=0 dh=-128 dv=0 dx=0 dy=0 dh=0 dv=0
PairPos2: "'kern' Horizontal Kerning lookup 0 subtable 0" uni0637 dx=-128 dy=0 dh=-128 dv=0 dx=0 dy=0 dh=0 dv=0
PairPos2: "'kern' Horizontal Kerning lookup 0 subtable 0" uniFEC3 dx=-128 dy=0 dh=-128 dv=0 dx=0 dy=0 dh=0 dv=0
PairPos2: "'kern' Horizontal Kerning lookup 0 subtable 0" uni0638 dx=-128 dy=0 dh=-128 dv=0 dx=0 dy=0 dh=0 dv=0
PairPos2: "'kern' Horizontal Kerning lookup 0 subtable 0" uniFEC7 dx=-128 dy=0 dh=-128 dv=0 dx=0 dy=0 dh=0 dv=0
PairPos2: "'kern' Horizontal Kerning lookup 0 subtable 0" uniFECB dx=-128 dy=0 dh=-128 dv=0 dx=0 dy=0 dh=0 dv=0
PairPos2: "'kern' Horizontal Kerning lookup 0 subtable 0" uniFECF dx=-128 dy=0 dh=-128 dv=0 dx=0 dy=0 dh=0 dv=0
PairPos2: "'kern' Horizontal Kerning lookup 0 subtable 0" uni0641 dx=-128 dy=0 dh=-128 dv=0 dx=0 dy=0 dh=0 dv=0
PairPos2: "'kern' Horizontal Kerning lookup 0 subtable 0" uniFED3 dx=-128 dy=0 dh=-128 dv=0 dx=0 dy=0 dh=0 dv=0
PairPos2: "'kern' Horizontal Kerning lookup 0 subtable 0" uni0642 dx=-43 dy=0 dh=-43 dv=0 dx=0 dy=0 dh=0 dv=0
PairPos2: "'kern' Horizontal Kerning lookup 0 subtable 0" uniFED7 dx=-128 dy=0 dh=-128 dv=0 dx=0 dy=0 dh=0 dv=0
PairPos2: "'kern' Horizontal Kerning lookup 0 subtable 0" uniFEDB dx=-213 dy=0 dh=-213 dv=0 dx=0 dy=0 dh=0 dv=0
PairPos2: "'kern' Horizontal Kerning lookup 0 subtable 0" uni0644 dx=-43 dy=0 dh=-43 dv=0 dx=0 dy=0 dh=0 dv=0
PairPos2: "'kern' Horizontal Kerning lookup 0 subtable 0" uni0645 dx=-128 dy=0 dh=-128 dv=0 dx=0 dy=0 dh=0 dv=0
PairPos2: "'kern' Horizontal Kerning lookup 0 subtable 0" uniFEE3 dx=-128 dy=0 dh=-128 dv=0 dx=0 dy=0 dh=0 dv=0
PairPos2: "'kern' Horizontal Kerning lookup 0 subtable 0" uniFEE7 dx=-128 dy=0 dh=-128 dv=0 dx=0 dy=0 dh=0 dv=0
PairPos2: "'kern' Horizontal Kerning lookup 0 subtable 0" uni0647 dx=-128 dy=0 dh=-128 dv=0 dx=0 dy=0 dh=0 dv=0
PairPos2: "'kern' Horizontal Kerning lookup 0 subtable 0" uni0649 dx=-43 dy=0 dh=-43 dv=0 dx=0 dy=0 dh=0 dv=0
PairPos2: "'kern' Horizontal Kerning lookup 0 subtable 0" uni06A9 dx=-213 dy=0 dh=-213 dv=0 dx=0 dy=0 dh=0 dv=0
PairPos2: "'kern' Horizontal Kerning lookup 0 subtable 0" uniFB90 dx=-213 dy=0 dh=-213 dv=0 dx=0 dy=0 dh=0 dv=0
PairPos2: "'kern' Horizontal Kerning lookup 0 subtable 0" uniFEDF dx=-128 dy=0 dh=-128 dv=0 dx=0 dy=0 dh=0 dv=0
PairPos2: "'kern' Horizontal Kerning lookup 0 subtable 0" uniFB7C dx=-115 dy=0 dh=-115 dv=0 dx=0 dy=0 dh=0 dv=0
PairPos2: "'kern' Horizontal Kerning lookup 0 subtable 0" uniFEEB dx=-128 dy=0 dh=-128 dv=0 dx=0 dy=0 dh=0 dv=0
PairPos2: "'kern' Horizontal Kerning lookup 0 subtable 0" uni06CC dx=-43 dy=0 dh=-43 dv=0 dx=0 dy=0 dh=0 dv=0
PairPos2: "'kern' Horizontal Kerning lookup 0 subtable 0" uni0631 dx=-43 dy=0 dh=-43 dv=0 dx=0 dy=0 dh=0 dv=0
PairPos2: "'kern' Horizontal Kerning lookup 0 subtable 0" uni0632 dx=-43 dy=0 dh=-43 dv=0 dx=0 dy=0 dh=0 dv=0
PairPos2: "'kern' Horizontal Kerning lookup 0 subtable 2" uni0648 dx=-43 dy=0 dh=-43 dv=0 dx=0 dy=0 dh=0 dv=0
PairPos2: "'kern' Horizontal Kerning lookup 0 subtable 3" uni0621 dx=-128 dy=0 dh=-128 dv=0 dx=0 dy=0 dh=0 dv=0
PairPos2: "'kern' Horizontal Kerning lookup 0 subtable 0" uniFBFE dx=20 dy=0 dh=20 dv=0 dx=0 dy=0 dh=0 dv=0
PairPos2: "'kern' Horizontal Kerning lookup 0 subtable 0" uniFB58 dx=20 dy=0 dh=20 dv=0 dx=0 dy=0 dh=0 dv=0
PairPos2: "'kern' Horizontal Kerning lookup 0 subtable 0" uniFEF3 dx=20 dy=0 dh=20 dv=0 dx=0 dy=0 dh=0 dv=0
PairPos2: "'kern' Horizontal Kerning lookup 0 subtable 3" uni06C0 dx=-128 dy=0 dh=-128 dv=0 dx=0 dy=0 dh=0 dv=0
Substitution2: "'fina' Terminal Forms in Arabic lookup 1 subtable" uniFEAE
EndChar

StartChar: uni0633
Encoding: 1587 1587 24
Width: 2349
GlyphClass: 2
Flags: HW
AnchorPoint: "Anchor-7" 636 -764 basechar 0
AnchorPoint: "Anchor-10" 1670 1042 basechar 0
LayerCount: 2
Fore
SplineSet
1932 180 m 0
 2042 180 2097 234 2097 341 c 0
 2097 377 2070 469 2018 615 c 1
 2127 741 l 2
 2138 754 2151 747 2165 718 c 0
 2221 602 2249 493 2249 384 c 0
 2249 189 2119 1 1934 1 c 0
 1830 1 1749 44 1690 129 c 1
 1627 44 1555 2 1474 2 c 0
 1386 2 1327 17 1298 48 c 1
 1298 -346 1057 -539 666 -539 c 0
 328 -539 108 -365 108 -35 c 0
 108 101 141 241 206 385 c 1
 316 352 l 1
 278 227 259 114 259 13 c 0
 259 -235 397 -359 674 -359 c 0
 920 -359 1147 -261 1147 -17 c 0
 1147 60 1106 172 1024 328 c 1
 1120 475 l 2
 1138 503 1154 482 1171 446 c 0
 1205 375 1233 319 1257 279 c 0
 1297 213 1366 181 1463 181 c 0
 1553 181 1603 230 1614 328 c 2
 1635 521 l 1
 1748 521 l 1
 1769 330 l 2
 1780 229 1834 180 1932 180 c 0
EndSplineSet
Substitution2: "'init' Initial Forms in Arabic lookup 3 subtable" uniFEB3
Substitution2: "'medi' Medial Forms in Arabic lookup 2 subtable" uniFEB4
Substitution2: "'fina' Terminal Forms in Arabic lookup 1 subtable" uniFEB2
EndChar

StartChar: uni0635
Encoding: 1589 1589 26
Width: 2603
GlyphClass: 2
Flags: HW
AnchorPoint: "Anchor-7" 636 -764 basechar 0
AnchorPoint: "Anchor-10" 2100 1162 basechar 0
LayerCount: 2
Fore
SplineSet
2342 400 m 0
 2342 505 2269 566 2156 566 c 0
 1998 566 1814 438 1602 181 c 1
 1843 181 l 2
 2141 181 2342 209 2342 400 c 0
2500 419 m 0
 2500 139 2277 0 1832 0 c 2
 1586 0 l 2
 1435 0 1339 16 1298 48 c 1
 1298 -336 1067 -539 666 -539 c 0
 328 -539 108 -365 108 -35 c 0
 108 101 141 241 206 385 c 1
 316 352 l 1
 278 227 259 114 259 13 c 0
 259 -235 397 -359 674 -359 c 0
 920 -359 1147 -247 1147 -17 c 0
 1147 60 1106 172 1024 328 c 1
 1120 475 l 2
 1141 506 1157 477 1171 446 c 0
 1259 254 1303 181 1452 181 c 1
 1688 556 1927 743 2169 743 c 0
 2372 743 2500 608 2500 419 c 0
EndSplineSet
Substitution2: "'init' Initial Forms in Arabic lookup 3 subtable" uniFEBB
Substitution2: "'medi' Medial Forms in Arabic lookup 2 subtable" uniFEBC
Substitution2: "'fina' Terminal Forms in Arabic lookup 1 subtable" uniFEBA
EndChar

StartChar: uni0637
Encoding: 1591 1591 28
Width: 1540
GlyphClass: 2
Flags: HW
AnchorPoint: "Anchor-10" 456 1533 basechar 0
AnchorPoint: "Anchor-7" 683 -220 basechar 0
LayerCount: 2
Fore
SplineSet
1437 419 m 0
 1437 139 1217 0 778 0 c 2
 220 0 l 1
 108 155 l 2
 100 164 105 181 124 181 c 2
 393 181 l 1
 415 215 438 248 462 282 c 1
 461 372 441 931 399 1320 c 1
 549 1407 l 2
 566 1417 575 1409 575 1382 c 2
 591 451 l 1
 757 645 929 743 1106 743 c 0
 1310 743 1437 608 1437 419 c 0
1278 400 m 0
 1278 505 1206 566 1093 566 c 0
 935 566 751 438 539 181 c 1
 780 181 l 2
 1078 181 1278 208 1278 400 c 0
EndSplineSet
Substitution2: "'init' Initial Forms in Arabic lookup 3 subtable" uniFEC3
Substitution2: "'medi' Medial Forms in Arabic lookup 2 subtable" uniFEC4
Substitution2: "'fina' Terminal Forms in Arabic lookup 1 subtable" uniFEC2
EndChar

StartChar: uni0639
Encoding: 1593 1593 30
Width: 1262
GlyphClass: 2
Flags: HW
AnchorPoint: "Anchor-7" 562 -813 basechar 0
AnchorPoint: "Anchor-10" 706 1330 basechar 0
LayerCount: 2
Fore
SplineSet
763 -485 m 0
 881 -485 1007 -477 1145 -458 c 0
 1168 -455 1161 -484 1156 -502 c 2
 1136 -575 l 2
 1126 -612 1096 -633 1047 -640 c 0
 978 -649 891 -655 788 -655 c 0
 390 -655 103 -514 103 -182 c 0
 103 54 222 235 460 360 c 1
 357 426 306 517 306 633 c 0
 306 852 492 1016 704 1016 c 0
 825 1016 926 974 1001 898 c 1
 990 859 970 805 955 769 c 1
 861 806 776 824 703 824 c 0
 551 824 449 700 449 648 c 0
 449 593 577 457 679 457 c 1
 778 472 978 499 1068 509 c 0
 1090 511 1099 501 1091 477 c 2
 1033 295 l 1
 629 295 250 158 250 -152 c 0
 250 -375 420 -485 763 -485 c 0
EndSplineSet
Substitution2: "'init' Initial Forms in Arabic lookup 3 subtable" uniFECB
Substitution2: "'medi' Medial Forms in Arabic lookup 2 subtable" uniFECC
Substitution2: "'fina' Terminal Forms in Arabic lookup 1 subtable" uniFECA
EndChar

StartChar: uni0640
Encoding: 1600 1600 32
Width: 245
GlyphClass: 2
Flags: HW
AnchorPoint: "Anchor-10" 128 870 basechar 0
AnchorPoint: "Anchor-7" 125 -198 basechar 0
LayerCount: 2
Fore
SplineSet
-60 77 m 2
 -60 102 l 2
 -60 154 -42 180 -5 180 c 2
 250 180 l 2
 267 180 275 154 275 102 c 2
 275 77 l 2
 275 26 267 0 250 0 c 2
 -5 0 l 2
 -42 0 -60 26 -60 77 c 2
EndSplineSet
EndChar

StartChar: uni0643
Encoding: 1603 1603 35
Width: 1878
GlyphClass: 2
Flags: HW
AnchorPoint: "Anchor-10" 916 1515 basechar 0
AnchorPoint: "Anchor-7" 832 -204 basechar 0
LayerCount: 2
Fore
SplineSet
1721 801 m 2
 1720 434 1681 221 1602 163 c 0
 1456 56 1191 2 809 2 c 0
 414 2 104 101 104 455 c 0
 104 568 128 672 175 767 c 1
 276 732 l 1
 254 653 244 583 244 524 c 0
 244 250 487 180 823 180 c 0
 1107 180 1366 203 1536 300 c 0
 1564 316 1579 404 1579 563 c 0
 1579 803 1572 943 1537 1299 c 1
 1685 1413 l 2
 1706 1430 1722 1428 1722 1390 c 2
 1721 801 l 2
891 788 m 0
 965 788 1076 805 1076 864 c 0
 1076 894 1031 918 940 938 c 0
 827 962 771 1027 771 1135 c 0
 771 1263 878 1337 1089 1366 c 0
 1123 1372 1142 1361 1132 1331 c 2
 1096 1227 l 1
 933 1211 850 1177 850 1127 c 0
 850 1097 895 1074 986 1058 c 0
 1104 1037 1166 981 1166 864 c 0
 1166 718 1043 650 887 650 c 0
 810 650 745 661 671 685 c 1
 684 826 l 1
 756 801 825 788 891 788 c 0
EndSplineSet
Substitution2: "'init' Initial Forms in Arabic lookup 3 subtable" uniFEDB
Substitution2: "'medi' Medial Forms in Arabic lookup 2 subtable" uniFEDC
Substitution2: "'fina' Terminal Forms in Arabic lookup 1 subtable" uniFEDA
EndChar

StartChar: uni0644
Encoding: 1604 1604 36
Width: 1325
GlyphClass: 2
Flags: HW
AnchorPoint: "Anchor-10" 571 1009 basechar 0
AnchorPoint: "Anchor-7" 646 -732 basechar 0
LayerCount: 2
Fore
SplineSet
1176 88 m 2
 1186 -327 1018 -539 649 -539 c 0
 319 -539 107 -348 107 -25 c 0
 107 101 141 238 210 385 c 1
 320 352 l 1
 280 223 260 113 260 19 c 0
 260 -233 391 -359 653 -359 c 0
 924 -359 1031 -228 1031 38 c 0
 1031 212 1000 890 972 1313 c 1
 1117 1400 l 2
 1136 1411 1145 1405 1146 1382 c 2
 1176 88 l 2
EndSplineSet
Substitution2: "'init' Initial Forms in Arabic lookup 3 subtable" uniFEDF
Substitution2: "'medi' Medial Forms in Arabic lookup 2 subtable" uniFEE0
Substitution2: "'fina' Terminal Forms in Arabic lookup 1 subtable" uniFEDE
EndChar

StartChar: uni0645
Encoding: 1605 1605 37
Width: 1110
GlyphClass: 2
Flags: HW
AnchorPoint: "Anchor-10" 609 1158 basechar 0
AnchorPoint: "Anchor-7" 207 -889 basechar 0
LayerCount: 2
Fore
SplineSet
395 95 m 0
 320 95 271 89 250 77 c 1
 263 -517 l 2
 264 -578 236 -637 177 -697 c 0
 152 -723 122 -744 120 -693 c 0
 113 -529 108 -363 105 -198 c 1
 105 42 133 213 290 269 c 1
 350 493 440 735 630 735 c 0
 806 735 1010 464 1010 291 c 0
 1010 159 869 41 829 41 c 0
 824 41 807 44 781 49 c 0
 702 65 543 95 395 95 c 0
412 276 m 1
 527 270 619 261 686 248 c 0
 753 236 799 229 822 229 c 0
 845 229 857 236 857 251 c 0
 857 376 728 541 613 541 c 0
 502 541 454 402 412 276 c 1
EndSplineSet
Substitution2: "'fina' Terminal Forms in Arabic lookup 1 subtable" uniFEE2
Substitution2: "'medi' Medial Forms in Arabic lookup 2 subtable" uniFEE4
Substitution2: "'init' Initial Forms in Arabic lookup 3 subtable" uniFEE3
EndChar

StartChar: uni0647
Encoding: 1607 1607 39
Width: 877
GlyphClass: 2
Flags: HW
AnchorPoint: "Anchor-10" 377 1134 basechar 0
AnchorPoint: "Anchor-7" 421 -224 basechar 0
LayerCount: 2
Fore
SplineSet
430 6 m 0
 249 6 109 108 109 296 c 0
 109 431 177 592 313 776 c 0
 331 800 347 810 375 798 c 0
 642 697 776 542 776 334 c 0
 776 126 640 6 430 6 c 0
368 597 m 1
 285 486 244 390 244 311 c 0
 244 228 312 186 448 186 c 0
 580 186 646 231 646 320 c 0
 646 399 574 494 368 597 c 1
EndSplineSet
Substitution2: "'init' Initial Forms in Arabic lookup 3 subtable" uniFEEB
Substitution2: "'medi' Medial Forms in Arabic lookup 2 subtable" uniFEEC
Substitution2: "'fina' Terminal Forms in Arabic lookup 1 subtable" uniFEEA
EndChar

StartChar: uni0648
Encoding: 1608 1608 40
Width: 806
GlyphClass: 2
Flags: HW
AnchorPoint: "Anchor-7" 356 -678 basechar 0
AnchorPoint: "Anchor-10" 373 1140 basechar 0
LayerCount: 2
Fore
SplineSet
556 5 m 1
 507 -1 449 -7 399 -7 c 0
 219 -7 95 70 95 239 c 0
 95 404 174 668 401 668 c 0
 616 668 711 418 711 136 c 0
 711 -280 409 -475 174 -535 c 0
 144 -543 125 -535 105 -512 c 2
 64 -460 l 2
 48 -439 31 -410 61 -402 c 0
 346 -324 511 -189 556 5 c 1
238 278 m 0
 238 194 331 174 426 174 c 0
 471 174 517 180 562 191 c 1
 550 331 506 491 391 491 c 0
 268 491 238 322 238 278 c 0
EndSplineSet
Substitution2: "'fina' Terminal Forms in Arabic lookup 1 subtable" uniFEEE
EndChar

StartChar: uni0649
Encoding: 1609 1609 41
Width: 1474
GlyphClass: 2
Flags: HW
AnchorPoint: "Anchor-10" 613 958 basechar 0
AnchorPoint: "Anchor-7" 618 -677 basechar 0
LayerCount: 2
Fore
SplineSet
1256 520 m 0
 1055 520 936 393 900 229 c 1
 1162 159 l 2
 1263 132 1314 80 1314 5 c 0
 1314 -231 1102 -489 663 -489 c 0
 330 -489 107 -309 107 15 c 0
 107 144 141 284 210 435 c 1
 320 402 l 1
 282 277 263 164 263 63 c 0
 263 -185 401 -309 676 -309 c 0
 1038 -309 1191 -106 1191 -55 c 0
 1191 -40 1180 -30 1157 -26 c 2
 913 39 l 2
 814 65 760 91 760 161 c 0
 760 292 881 732 1256 732 c 0
 1298 732 1342 725 1386 712 c 1
 1382 671 1369 607 1348 517 c 1
 1310 519 1284 520 1256 520 c 0
EndSplineSet
Substitution2: "'init' Initial Forms in Arabic lookup 3 subtable" uniFBE8
Substitution2: "'medi' Medial Forms in Arabic lookup 2 subtable" uniFBE9
Substitution2: "'fina' Terminal Forms in Arabic lookup 1 subtable" uniFEF0
EndChar

StartChar: uni064B
Encoding: 1611 1611 43
Width: 0
GlyphClass: 4
Flags: HW
AnchorPoint: "Anchor-10" 637 1173 mark 0
AnchorPoint: "Anchor-9" 637 1173 mark 0
AnchorPoint: "Anchor-1" 595 1707 basemark 0
AnchorPoint: "Anchor-1" 637 1173 mark 0
LayerCount: 2
Fore
SplineSet
382 1153 m 1
 382 1254 l 1
 777 1420 l 1
 777 1319 l 1
 382 1153 l 1
382 1403 m 1
 382 1504 l 1
 777 1670 l 1
 777 1569 l 1
 382 1403 l 1
EndSplineSet
EndChar

StartChar: uni064C
Encoding: 1612 1612 44
Width: 0
GlyphClass: 4
Flags: HW
AnchorPoint: "Anchor-10" 707 1262 mark 0
AnchorPoint: "Anchor-9" 707 1262 mark 0
AnchorPoint: "Anchor-1" 594 1986 basemark 0
AnchorPoint: "Anchor-1" 707 1262 mark 0
LayerCount: 2
Fore
SplineSet
331 1570 m 1
 340 1443 359 1334 458 1334 c 0
 586 1334 666 1452 710 1540 c 1
 606 1561 505 1613 505 1724 c 0
 505 1832 575 1890 672 1890 c 0
 776 1890 845 1825 845 1710 c 0
 845 1671 834 1631 823 1597 c 1
 856 1595 874 1594 915 1594 c 1
 915 1511 l 1
 861 1511 831 1514 783 1521 c 1
 734 1411 623 1254 469 1254 c 0
 341 1254 278 1360 273 1570 c 1
 331 1570 l 1
763 1704 m 0
 763 1762 738 1808 682 1808 c 0
 622 1808 590 1783 590 1725 c 0
 590 1657 664 1634 735 1612 c 1
 749 1640 763 1672 763 1704 c 0
EndSplineSet
EndChar

StartChar: uni064D
Encoding: 1613 1613 45
Width: 0
GlyphClass: 4
Flags: HW
AnchorPoint: "Anchor-7" 520 9 mark 0
AnchorPoint: "Anchor-6" 520 9 mark 0
AnchorPoint: "Anchor-0" 615 -456 basemark 0
AnchorPoint: "Anchor-0" 520 9 mark 0
LayerCount: 2
Fore
SplineSet
329 -488 m 1
 329 -387 l 1
 724 -221 l 1
 724 -322 l 1
 329 -488 l 1
329 -238 m 1
 329 -137 l 1
 724 29 l 1
 724 -72 l 1
 329 -238 l 1
EndSplineSet
EndChar

StartChar: uni064E
Encoding: 1614 1614 46
Width: 0
GlyphClass: 4
Flags: HW
AnchorPoint: "Anchor-10" 541 1315 mark 0
AnchorPoint: "Anchor-9" 541 1315 mark 0
AnchorPoint: "Anchor-1" 520 1629 basemark 0
AnchorPoint: "Anchor-1" 541 1315 mark 0
LayerCount: 2
Fore
SplineSet
303 1306 m 1
 303 1407 l 1
 698 1573 l 1
 698 1472 l 1
 303 1306 l 1
EndSplineSet
EndChar

StartChar: uni064F
Encoding: 1615 1615 47
Width: 0
GlyphClass: 4
Flags: HW
AnchorPoint: "Anchor-10" 598 1262 mark 0
AnchorPoint: "Anchor-9" 598 1262 mark 0
AnchorPoint: "Anchor-1" 529 1858 basemark 0
AnchorPoint: "Anchor-1" 598 1262 mark 0
LayerCount: 2
Fore
SplineSet
569 1695 m 0
 523 1695 491 1659 491 1617 c 0
 491 1567 548 1536 624 1513 c 1
 640 1552 649 1584 649 1611 c 0
 649 1666 621 1695 569 1695 c 0
412 1623 m 0
 412 1705 479 1776 564 1776 c 0
 663 1776 727 1700 727 1604 c 0
 727 1575 714 1529 704 1499 c 1
 733 1497 765 1496 792 1496 c 1
 792 1419 l 1
 756 1420 713 1423 666 1428 c 1
 594 1327 472 1245 306 1235 c 1
 306 1312 l 1
 430 1318 516 1374 581 1451 c 1
 483 1481 412 1517 412 1623 c 0
EndSplineSet
EndChar

StartChar: uni0650
Encoding: 1616 1616 48
Width: 0
GlyphClass: 4
Flags: HW
AnchorPoint: "Anchor-7" 549 -78 mark 0
AnchorPoint: "Anchor-6" 549 -78 mark 0
AnchorPoint: "Anchor-0" 583 -286 basemark 0
AnchorPoint: "Anchor-0" 549 -78 mark 0
LayerCount: 2
Fore
SplineSet
351 -322 m 1
 351 -221 l 1
 746 -55 l 1
 746 -156 l 1
 351 -322 l 1
EndSplineSet
EndChar

StartChar: uni0651
Encoding: 1617 1617 49
Width: 0
GlyphClass: 4
Flags: HW
AnchorPoint: "Anchor-10" 590 1343 mark 0
AnchorPoint: "Anchor-9" 590 1343 mark 0
AnchorPoint: "Anchor-1" 560 1778 basemark 0
AnchorPoint: "Anchor-1" 590 1343 mark 0
LayerCount: 2
Fore
SplineSet
416 1458 m 0xb8
 474 1458 503 1492 503 1561 c 2
 503 1682 l 1
 534 1692 566 1697 597 1700 c 1
 599 1612 l 2
 600 1550 628 1519 684 1519 c 0
 731 1519 756 1551 756 1615 c 0
 756 1640 755 1669 753 1696 c 1
 846 1757 l 1
 851 1715 854 1665 854 1622 c 0
 854 1461 803 1381 701 1381 c 0x78
 649 1381 606 1399 570 1435 c 1
 538 1358 485 1320 409 1320 c 0
 304 1320 252 1391 252 1533 c 0
 252 1574 255 1615 259 1655 c 1
 343 1621 l 1
 344 1542 l 2
 345 1486 369 1458 416 1458 c 0xb8
EndSplineSet
EndChar

StartChar: uni0652
Encoding: 1618 1618 50
Width: 0
GlyphClass: 4
Flags: HW
AnchorPoint: "Anchor-10" 732 1489 mark 0
AnchorPoint: "Anchor-9" 732 1489 mark 0
AnchorPoint: "Anchor-1" 715 2018 basemark 0
AnchorPoint: "Anchor-1" 732 1489 mark 0
LayerCount: 2
Fore
SplineSet
721 1961 m 0
 842 1961 924 1876 925 1757 c 0
 924 1643 835 1552 721 1552 c 0
 608 1552 517 1644 517 1757 c 0
 517 1879 609 1961 721 1961 c 0
721 1632 m 0
 794 1632 846 1684 846 1757 c 0
 846 1831 794 1881 721 1881 c 0
 647 1881 596 1830 596 1757 c 0
 596 1683 647 1632 721 1632 c 0
EndSplineSet
EndChar

StartChar: uni0653
Encoding: 1619 1619 51
Width: 0
GlyphClass: 4
Flags: HW
AnchorPoint: "Anchor-10" 485 1566 mark 0
AnchorPoint: "Anchor-9" 485 1566 mark 0
AnchorPoint: "Anchor-1" 455 2024 basemark 0
AnchorPoint: "Anchor-1" 485 1566 mark 0
LayerCount: 2
Fore
SplineSet
315 1831 m 0
 351 1831 405 1826 458 1820 c 0
 507 1814 554 1810 583 1810 c 0
 666 1810 725 1815 758 1823 c 0
 823 1839 840 1827 801 1769 c 0
 746 1691 689 1662 526 1662 c 0
 479 1662 424 1665 362 1670 c 1
 299 1665 237 1635 177 1582 c 1
 159 1594 144 1607 134 1621 c 1
 188 1761 249 1831 315 1831 c 0
EndSplineSet
EndChar

StartChar: uni0657
Encoding: 1623 1623 54
Width: 0
GlyphClass: 4
Flags: HW
AnchorPoint: "Anchor-10" 744 1752 mark 0
AnchorPoint: "Anchor-9" 744 1752 mark 0
AnchorPoint: "Anchor-1" 744 2712 basemark 0
AnchorPoint: "Anchor-1" 744 1752 mark 0
LayerCount: 2
Fore
SplineSet
434 2093 m 0
 434 2131 450 2197 466 2238 c 1
 427 2242 389 2244 347 2244 c 1
 347 2338 l 1
 394 2337 450 2333 514 2326 c 1
 614 2484 817 2615 1015 2634 c 1
 1015 2540 l 1
 899 2531 712 2410 618 2296 c 1
 732 2275 853 2205 853 2064 c 0
 853 1953 763 1873 655 1873 c 0
 520 1873 434 1957 434 2093 c 0
528 2094 m 0
 528 2026 572 1968 627 1968 c 0
 711 1968 753 2004 753 2076 c 0
 753 2164 658 2197 565 2222 c 1
 548 2185 528 2135 528 2094 c 0
EndSplineSet
EndChar

StartChar: uni065A
Encoding: 1626 1626 55
Width: 1473
GlyphClass: 4
Flags: HW
AnchorPoint: "Anchor-10" 744 1755 mark 0
AnchorPoint: "Anchor-9" 744 1755 mark 0
AnchorPoint: "Anchor-1" 741 2420 basemark 0
AnchorPoint: "Anchor-1" 744 1755 mark 0
LayerCount: 2
Fore
SplineSet
652 1878 m 1
 402 2297 l 1
 536 2297 l 1
 744 1984 l 1
 952 2297 l 1
 1086 2297 l 1
 836 1878 l 1
 652 1878 l 1
EndSplineSet
EndChar

StartChar: uni0660
Encoding: 1632 1632 56
Width: 897
GlyphClass: 2
Flags: HW
LayerCount: 2
Fore
SplineSet
451 809 m 1
 665 595 l 1
 446 376 l 1
 232 590 l 1
 451 809 l 1
EndSplineSet
EndChar

StartChar: uni0661
Encoding: 1633 1633 57
Width: 731
GlyphClass: 2
Flags: HW
LayerCount: 2
Fore
SplineSet
300 1340 m 0
 434 1014 517 607 517 146 c 0
 517 91 513 56 506 43 c 0
 503 38 466 27 394 8 c 1
 393 442 310 846 145 1221 c 1
 255 1357 l 2
 274 1379 288 1369 300 1340 c 0
EndSplineSet
EndChar

StartChar: uni0662
Encoding: 1634 1634 58
Width: 1095
GlyphClass: 2
Flags: HW
LayerCount: 2
Fore
SplineSet
602 997 m 0
 750 997 835 1096 855 1294 c 2
 859 1341 l 1
 982 1341 l 1
 979 1287 l 1
 965 959 833 795 582 795 c 0
 537 795 496 799 458 808 c 1
 497 623 517 401 517 146 c 0
 517 91 513 56 506 43 c 0
 503 38 466 27 394 8 c 1
 394 442 311 846 146 1223 c 1
 252 1355 l 2
 271 1378 286 1375 297 1345 c 0
 313 1302 336 1242 367 1165 c 0
 411 1052 488 997 602 997 c 0
EndSplineSet
EndChar

StartChar: uni0663
Encoding: 1635 1635 59
Width: 1295
GlyphClass: 2
Flags: HW
LayerCount: 2
Fore
SplineSet
458 808 m 1
 497 623 517 401 517 146 c 0
 517 91 513 56 506 43 c 0
 503 38 466 27 394 8 c 1
 394 442 311 846 146 1223 c 1
 252 1355 l 2
 271 1378 286 1375 297 1345 c 0
 313 1302 336 1242 367 1165 c 0
 412 1053 471 997 544 997 c 0
 639 997 690 1063 698 1195 c 2
 704 1302 l 1
 827 1302 l 1
 832 1190 l 2
 838 1061 878 996 952 996 c 0
 1022 996 1064 1075 1076 1234 c 2
 1083 1326 l 1
 1205 1326 l 1
 1205 1269 l 2
 1205 967 1114 816 932 816 c 0
 843 816 775 849 728 915 c 1
 681 841 612 803 522 803 c 0
 499 803 479 805 458 808 c 1
EndSplineSet
EndChar

StartChar: uni0664
Encoding: 1636 1636 60
Width: 991
GlyphClass: 2
Flags: HW
LayerCount: 2
Fore
SplineSet
345 269 m 0
 466 236 635 220 854 220 c 1
 850 60 l 2
 849 24 834 7 808 7 c 0
 547 7 140 79 140 243 c 0
 140 349 263 480 510 636 c 1
 313 725 146 810 146 933 c 0
 146 1054 329 1189 696 1338 c 0
 732 1352 742 1352 731 1303 c 2
 682 1079 l 1
 573 1065 454 1029 325 970 c 0
 290 954 291 936 323 916 c 0
 400 867 539 799 741 710 c 1
 742 690 744 656 747 606 c 1
 556 524 418 437 332 344 c 0
 301 311 295 284 345 269 c 0
EndSplineSet
EndChar

StartChar: uni0665
Encoding: 1637 1637 61
Width: 1115
GlyphClass: 2
Flags: HW
LayerCount: 2
Fore
SplineSet
535 1005 m 1
 352 795 261 610 261 449 c 0
 261 286 358 206 550 206 c 0
 765 206 873 286 873 446 c 0
 873 613 760 799 535 1005 c 1
354 1147 m 1
 478 1361 l 1
 822 1040 994 731 994 434 c 0
 994 163 827 9 539 9 c 0
 284 9 124 166 124 424 c 0
 124 622 227 844 432 1089 c 1
 354 1147 l 1
EndSplineSet
EndChar

StartChar: uni0666
Encoding: 1638 1638 62
Width: 1171
GlyphClass: 2
Flags: HW
LayerCount: 2
Fore
SplineSet
844 1317 m 1
 857 674 925 286 1051 153 c 1
 926 6 l 1
 732 214 709 666 709 1116 c 1
 607 1108 518 1104 441 1104 c 0
 292 1104 190 1119 135 1151 c 0
 107 1167 92 1232 90 1342 c 0
 90 1364 99 1371 116 1365 c 0
 238 1319 382 1296 549 1296 c 0
 641 1296 739 1303 844 1317 c 1
EndSplineSet
EndChar

StartChar: uni0667
Encoding: 1639 1639 63
Width: 1203
GlyphClass: 2
Flags: HW
LayerCount: 2
Fore
SplineSet
1103 1210 m 1
 902 857 756 458 667 10 c 1
 556 10 l 1
 477 424 326 824 101 1211 c 1
 199 1375 l 2
 204 1384 210 1383 218 1370 c 0
 419 1034 550 698 612 364 c 1
 699 770 816 1104 964 1365 c 0
 972 1379 979 1381 986 1374 c 2
 1103 1210 l 1
EndSplineSet
EndChar

StartChar: uni0668
Encoding: 1640 1640 64
Width: 1203
GlyphClass: 2
Flags: HW
LayerCount: 2
Fore
SplineSet
1103 165 m 1
 986 1 l 2
 979 -6 972 -4 964 10 c 0
 816 271 699 605 612 1011 c 1
 550 677 419 341 218 5 c 0
 210 -8 204 -9 199 -0 c 2
 101 163 l 1
 326 550 477 951 556 1365 c 1
 667 1365 l 1
 756 917 902 518 1103 165 c 1
EndSplineSet
EndChar

StartChar: uni0669
Encoding: 1641 1641 65
Width: 1039
GlyphClass: 2
Flags: HW
LayerCount: 2
Fore
SplineSet
447 832 m 0
 499 832 560 840 629 855 c 1
 618 1050 568 1174 430 1174 c 0
 328 1174 274 1056 274 951 c 0
 274 846 346 832 447 832 c 0
441 1374 m 0
 675 1374 757 1137 768 866 c 0
 784 488 845 250 950 152 c 1
 826 6 l 1
 692 134 660 341 649 658 c 1
 580 647 517 642 462 642 c 0
 241 642 131 733 131 919 c 0
 131 1034 174 1374 441 1374 c 0
EndSplineSet
EndChar

StartChar: uni066A
Encoding: 1642 1642 66
Width: 1154
GlyphClass: 2
Flags: HW
LayerCount: 2
Fore
SplineSet
306 963 m 0
 216 963 151 1029 151 1118 c 0
 151 1203 222 1272 306 1272 c 0
 393 1272 460 1205 460 1118 c 0
 460 1034 391 963 306 963 c 0
823 1372 m 1
 967 1298 l 1
 304 16 l 1
 161 95 l 1
 823 1372 l 1
849 135 m 0
 759 135 694 201 694 290 c 0
 694 375 765 444 849 444 c 0
 936 444 1003 377 1003 290 c 0
 1003 206 934 135 849 135 c 0
EndSplineSet
EndChar

StartChar: uni066B
Encoding: 1643 1643 67
Width: 822
GlyphClass: 2
Flags: HW
LayerCount: 2
Fore
SplineSet
583 768 m 1
 714 712 l 1
 200 -359 l 1
 66 -301 l 1
 583 768 l 1
EndSplineSet
PairPos2: "'kern' Horizontal Kerning lookup 0 subtable 6" uni06F2 dx=-130 dy=0 dh=-130 dv=0 dx=0 dy=0 dh=0 dv=0
PairPos2: "'kern' Horizontal Kerning lookup 0 subtable 6" uni06F3 dx=-130 dy=0 dh=-130 dv=0 dx=0 dy=0 dh=0 dv=0
PairPos2: "'kern' Horizontal Kerning lookup 0 subtable 6" uni06F4 dx=-110 dy=0 dh=-110 dv=0 dx=0 dy=0 dh=0 dv=0
EndChar

StartChar: uni066C
Encoding: 1644 1644 68
Width: 503
GlyphClass: 2
Flags: HW
LayerCount: 2
Fore
SplineSet
106 111 m 0
 106 193 155 235 231 235 c 0
 319 235 362 182 362 74 c 0
 362 -73 289 -189 142 -277 c 0
 82 -313 58 -273 89 -251 c 0
 193 -177 242 -88 242 3 c 1
 165 3 106 34 106 111 c 0
EndSplineSet
PairPos2: "'kern' Horizontal Kerning lookup 0 subtable 6" uni06F2 dx=-112 dy=0 dh=-112 dv=0 dx=0 dy=0 dh=0 dv=0
PairPos2: "'kern' Horizontal Kerning lookup 0 subtable 6" uni06F3 dx=-128 dy=0 dh=-128 dv=0 dx=0 dy=0 dh=0 dv=0
PairPos2: "'kern' Horizontal Kerning lookup 0 subtable 6" uni06F4 dx=-112 dy=0 dh=-112 dv=0 dx=0 dy=0 dh=0 dv=0
EndChar

StartChar: uni066D
Encoding: 1645 1645 69
Width: 1734
GlyphClass: 2
Flags: HW
LayerCount: 2
Fore
SplineSet
219 1159 m 1
 714 1159 l 1
 869 1630 l 1
 1024 1159 l 1
 1519 1159 l 1
 1119 866 l 1
 1272 396 l 1
 869 687 l 1
 466 396 l 1
 619 866 l 1
 219 1159 l 1
EndSplineSet
EndChar

StartChar: uni066E
Encoding: 1646 1646 70
Width: 1788
GlyphClass: 2
Flags: HW
AnchorPoint: "Anchor-10" 778 1272 basechar 0
AnchorPoint: "Anchor-7" 636 -212 basechar 0
LayerCount: 2
Fore
SplineSet
834 2 m 0
 428 2 104 95 104 457 c 0
 104 569 128 673 175 767 c 1
 276 732 l 1
 254 649 243 577 243 516 c 0
 243 267 496 180 835 180 c 0
 1229 180 1536 251 1536 353 c 0
 1536 412 1512 500 1465 639 c 1
 1574 768 l 2
 1585 781 1598 774 1613 745 c 0
 1662 651 1687 553 1687 438 c 0
 1687 105 1391 2 834 2 c 0
EndSplineSet
Substitution2: "'init' Initial Forms in Arabic lookup 3 subtable" uniFBE8
Substitution2: "'medi' Medial Forms in Arabic lookup 2 subtable" uniFBE9
Substitution2: "'fina' Terminal Forms in Arabic lookup 1 subtable" uni066E.fina
EndChar

StartChar: uni066F
Encoding: 1647 1647 71
Width: 1390
GlyphClass: 2
Flags: HW
AnchorPoint: "Anchor-10" 537 1166 basechar 0
AnchorPoint: "Anchor-7" 558 -696 basechar 0
LayerCount: 2
Fore
SplineSet
976 83 m 0
 804 83 684 156 684 317 c 0
 684 545 802 752 980 752 c 0
 1213 752 1290 483 1290 170 c 0
 1290 -253 1067 -438 659 -438 c 0
 322 -438 102 -263 102 66 c 0
 102 202 135 342 200 486 c 1
 310 454 l 1
 272 329 253 216 253 115 c 0
 253 -133 391 -258 668 -258 c 0
 940 -258 1139 -160 1150 104 c 1
 1087 90 1028 83 976 83 c 0
977 266 m 0
 1035 266 1114 281 1149 298 c 1
 1138 440 1097 564 972 564 c 0
 886 564 815 488 815 372 c 0
 815 289 888 266 977 266 c 0
EndSplineSet
Substitution2: "'fina' Terminal Forms in Arabic lookup 1 subtable" uni066F.fina
Substitution2: "'medi' Medial Forms in Arabic lookup 2 subtable" uni06A1.medi
Substitution2: "'init' Initial Forms in Arabic lookup 3 subtable" uni06A1.init
EndChar

StartChar: uni0670
Encoding: 1648 1648 72
Width: 0
GlyphClass: 4
Flags: HW
AnchorPoint: "Anchor-10" 756 1750 mark 0
AnchorPoint: "Anchor-9" 756 1750 mark 0
AnchorPoint: "Anchor-1" 744 2347 basemark 0
AnchorPoint: "Anchor-1" 756 1750 mark 0
LayerCount: 2
Fore
SplineSet
739 1810 m 1
 684 2194 l 1
 805 2265 l 1
 805 1831 l 1
 739 1810 l 1
EndSplineSet
EndChar

StartChar: uni0674
Encoding: 1652 1652 73
Width: 802
GlyphClass: 2
Flags: HW
LayerCount: 2
Fore
SplineSet
200 1791 m 1
 221 1926 l 1
 253 1940 285 1954 317 1968 c 1
 247 1982 211 2026 211 2099 c 0
 211 2178 242 2346 413 2346 c 0
 465 2346 515 2322 566 2273 c 1
 531 2192 l 1
 488 2205 450 2212 418 2212 c 0
 352 2212 304 2178 304 2141 c 0
 304 2100 346 2046 433 2046 c 0
 461 2046 494 2050 531 2060 c 0
 556 2067 586 2073 586 2055 c 2
 586 1950 l 1
 509 1930 380 1877 200 1791 c 1
EndSplineSet
EndChar

StartChar: uni0686
Encoding: 1670 1670 75
Width: 1296
GlyphClass: 2
Flags: HW
AnchorPoint: "Anchor-7" 572 -813 basechar 0
AnchorPoint: "Anchor-10" 630 1168 basechar 0
LayerCount: 2
Fore
SplineSet
784 -67 m 2
 894 -177 l 2
 899 -182 898 -187 894 -191 c 2
 782 -303 l 2
 778 -307 774 -307 769 -303 c 2
 660 -194 l 2
 654 -188 653 -181 659 -175 c 2
 766 -68 l 2
 771 -63 778 -61 784 -67 c 2
930 159 m 2
 1040 49 l 2
 1045 44 1044 39 1040 35 c 2
 928 -77 l 2
 924 -81 920 -81 915 -77 c 2
 806 32 l 2
 800 38 799 45 805 51 c 2
 912 158 l 2
 917 163 924 165 930 159 c 2
638 159 m 2
 748 49 l 2
 753 44 752 39 748 35 c 2
 636 -77 l 2
 632 -81 628 -81 623 -77 c 2
 514 32 l 2
 508 38 507 45 513 51 c 2
 620 158 l 2
 625 163 632 165 638 159 c 2
EndSplineSet
Refer: 18 1581 N 1 0 0 1 0 0 2
Substitution2: "'fina' Terminal Forms in Arabic lookup 1 subtable" uniFB7B
Substitution2: "'medi' Medial Forms in Arabic lookup 2 subtable" uniFB7D
Substitution2: "'init' Initial Forms in Arabic lookup 3 subtable" uniFB7C
EndChar

StartChar: uni06A1
Encoding: 1697 1697 77
Width: 1728
GlyphClass: 2
Flags: HW
AnchorPoint: "Anchor-10" 740 1448 basechar 0
AnchorPoint: "Anchor-7" 613 -198 basechar 0
LayerCount: 2
Fore
SplineSet
1308 553 m 0
 1378 553 1435 562 1481 580 c 1
 1470 714 1426 835 1299 835 c 0
 1218 835 1147 754 1147 644 c 0
 1147 575 1227 553 1308 553 c 0
1312 375 m 0
 1126 377 1016 424 1016 588 c 0
 1016 816 1138 1024 1312 1024 c 0
 1543 1024 1626 736 1626 463 c 0
 1626 23 1222 2 816 2 c 0
 458 2 104 99 104 455 c 0
 104 568 128 672 175 767 c 1
 276 732 l 1
 254 653 244 583 244 524 c 0
 244 260 484 181 856 181 c 0
 1276 181 1482 197 1482 397 c 1
 1410 383 1353 375 1312 375 c 0
EndSplineSet
Substitution2: "'fina' Terminal Forms in Arabic lookup 1 subtable" uni06A1.fina
Substitution2: "'medi' Medial Forms in Arabic lookup 2 subtable" uni06A1.medi
Substitution2: "'init' Initial Forms in Arabic lookup 3 subtable" uni06A1.init
EndChar

StartChar: uni06A9
Encoding: 1705 1705 78
Width: 1892
GlyphClass: 2
Flags: HW
AnchorPoint: "Anchor-7" 799 -206 basechar 0
AnchorPoint: "Anchor-10" 1045 1390 basechar 0
LayerCount: 2
Fore
SplineSet
1136 1033 m 1
 1463 740 1625 539 1625 402 c 0
 1625 163 1310 2 809 2 c 0
 414 2 104 101 104 455 c 0
 104 568 128 672 175 767 c 1
 276 732 l 1
 254 653 244 583 244 524 c 0
 244 249 525 180 828 180 c 0
 1270 180 1484 322 1484 405 c 0
 1484 476 1308 659 956 955 c 1
 993 1143 l 1
 1797 1437 l 2
 1820 1447 1837 1438 1832 1408 c 2
 1809 1264 l 1
 1136 1033 l 1
EndSplineSet
Substitution2: "'fina' Terminal Forms in Arabic lookup 1 subtable" uniFB8F
Substitution2: "'medi' Medial Forms in Arabic lookup 2 subtable" uniFB91
Substitution2: "'init' Initial Forms in Arabic lookup 3 subtable" uniFB90
EndChar

StartChar: uni06AF
Encoding: 1711 1711 79
Width: 1904
GlyphClass: 2
Flags: HW
AnchorPoint: "Anchor-7" 799 -206 basechar 0
AnchorPoint: "Anchor-10" 1015 1535 basechar 0
LayerCount: 2
Fore
SplineSet
819 179 m 0
 1188 179 1438 327 1438 403 c 0
 1438 474 1232 667 959 895 c 1
 996 1083 l 1
 1800 1377 l 2
 1823 1387 1840 1378 1835 1348 c 2
 1812 1204 l 1
 1139 973 l 1
 1432 722 1578 533 1578 406 c 0
 1578 181 1238 2 826 2 c 0
 417 2 104 99 104 457 c 0
 104 570 128 673 175 767 c 1
 276 732 l 1
 254 653 244 583 244 519 c 0
 244 250 520 179 819 179 c 0
EndSplineSet
Refer: 270 -1 N 1.1342 0 0 1.1342 962 -757 2
Substitution2: "'fina' Terminal Forms in Arabic lookup 1 subtable" uniFB93
Substitution2: "'medi' Medial Forms in Arabic lookup 2 subtable" uniFB95
Substitution2: "'init' Initial Forms in Arabic lookup 3 subtable" uniFB94
EndChar

StartChar: uni06BA
Encoding: 1722 1722 80
Width: 1395
GlyphClass: 2
Flags: HW
LayerCount: 2
Fore
SplineSet
667 -399 m 0
 329 -399 108 -226 108 105 c 0
 108 241 141 381 206 525 c 1
 316 492 l 1
 278 367 259 254 259 153 c 0
 259 -95 397 -219 674 -219 c 0
 990 -219 1147 -54 1147 123 c 0
 1147 198 1106 313 1024 468 c 1
 1120 615 l 2
 1137 640 1151 622 1171 586 c 0
 1257 423 1301 274 1301 140 c 0
 1301 -116 1151 -399 667 -399 c 0
EndSplineSet
Substitution2: "'fina' Terminal Forms in Arabic lookup 1 subtable" uniFB9F
Substitution2: "'medi' Medial Forms in Arabic lookup 2 subtable" uniFBE9
Substitution2: "'init' Initial Forms in Arabic lookup 3 subtable" uniFBE8
EndChar

StartChar: uni06F4
Encoding: 1780 1780 87
Width: 1190
GlyphClass: 2
Flags: HW
LayerCount: 2
Fore
SplineSet
837 1207 m 0
 727 1207 649 1130 649 1016 c 0
 649 920 738 903 834 903 c 0
 897 903 967 915 1043 939 c 1
 1067 791 l 1
 985 752 896 732 801 732 c 0
 654 732 538 767 454 835 c 1
 496 637 517 407 517 146 c 0
 517 91 513 56 506 43 c 0
 503 38 466 27 394 8 c 1
 394 442 311 846 146 1223 c 1
 252 1355 l 2
 271 1378 286 1375 297 1345 c 0
 360 1166 408 1030 539 976 c 1
 527 1016 521 1054 521 1090 c 0
 521 1263 638 1366 797 1366 c 0
 886 1366 961 1327 1026 1249 c 1
 987 1175 l 1
 930 1197 881 1207 837 1207 c 0
EndSplineSet
PairPos2: "'kern' Horizontal Kerning lookup 0 subtable 6" uni06F5 dx=-70 dy=0 dh=-70 dv=0 dx=0 dy=0 dh=0 dv=0
PairPos2: "'kern' Horizontal Kerning lookup 0 subtable 6" uni06F8 dx=-70 dy=0 dh=-70 dv=0 dx=0 dy=0 dh=0 dv=0
EndChar

StartChar: uni06F5
Encoding: 1781 1781 88
Width: 1192
GlyphClass: 2
Flags: HW
LayerCount: 2
Fore
SplineSet
636 456 m 1
 676 286 738 200 824 200 c 0
 906 200 946 242 946 324 c 0
 945 512 819 751 567 1044 c 1
 355 719 248 479 248 321 c 0
 248 240 289 200 370 200 c 0
 458 200 524 286 566 457 c 1
 636 456 l 1
603 205 m 1
 556 78 476 15 362 15 c 0
 203 15 124 113 124 308 c 0
 124 542 236 826 458 1162 c 1
 413 1202 l 1
 501 1358 l 2
 512 1378 527 1378 544 1359 c 0
 896 984 1072 642 1072 328 c 0
 1072 120 996 16 844 16 c 0
 735 16 655 79 603 205 c 1
EndSplineSet
PairPos2: "'kern' Horizontal Kerning lookup 0 subtable 6" uni06F2 dx=-100 dy=0 dh=-100 dv=0 dx=0 dy=0 dh=0 dv=0
PairPos2: "'kern' Horizontal Kerning lookup 0 subtable 6" uni06F3 dx=-100 dy=0 dh=-100 dv=0 dx=0 dy=0 dh=0 dv=0
PairPos2: "'kern' Horizontal Kerning lookup 0 subtable 6" uni06F4 dx=-70 dy=0 dh=-70 dv=0 dx=0 dy=0 dh=0 dv=0
PairPos2: "'kern' Horizontal Kerning lookup 0 subtable 6" uni06F6 dx=-70 dy=0 dh=-70 dv=0 dx=0 dy=0 dh=0 dv=0
PairPos2: "'kern' Horizontal Kerning lookup 0 subtable 6" uni06F7 dx=-70 dy=0 dh=-70 dv=0 dx=0 dy=0 dh=0 dv=0
PairPos2: "'kern' Horizontal Kerning lookup 0 subtable 6" uni06F0 dx=-30 dy=0 dh=-30 dv=0 dx=0 dy=0 dh=0 dv=0
EndChar

StartChar: uni06F6
Encoding: 1782 1782 89
Width: 1041
GlyphClass: 2
Flags: HW
LayerCount: 2
Fore
SplineSet
540 1189 m 0
 357 1189 278 1050 278 991 c 0
 278 939 365 825 637 825 c 0
 656 825 681 836 713 858 c 0
 813 925 879 961 906 961 c 0
 925 961 931 952 926 932 c 2
 883 750 l 1
 683 661 457 408 206 -8 c 1
 137 77 l 2
 134 81 134 83 136 88 c 0
 249 342 358 527 454 651 c 1
 242 696 134 797 134 955 c 0
 134 1077 238 1381 532 1381 c 0
 629 1381 715 1347 793 1278 c 1
 745 1154 l 1
 655 1177 588 1189 540 1189 c 0
EndSplineSet
EndChar

StartChar: uniFB7B
Encoding: 64379 64379 98
Width: 1319
GlyphClass: 2
Flags: HW
AnchorPoint: "Anchor-7" 572 -813 basechar 0
AnchorPoint: "Anchor-10" 653 1171 basechar 0
LayerCount: 2
Fore
SplineSet
663 -143 m 2
 773 -253 l 2
 778 -258 777 -263 773 -267 c 2
 661 -379 l 2
 657 -383 653 -383 648 -379 c 2
 539 -270 l 2
 533 -264 532 -257 538 -251 c 2
 645 -144 l 2
 650 -139 657 -137 663 -143 c 2
809 83 m 2
 919 -27 l 2
 924 -32 923 -37 919 -41 c 2
 807 -153 l 2
 803 -157 799 -157 794 -153 c 2
 685 -44 l 2
 679 -38 678 -31 684 -25 c 2
 791 82 l 2
 796 87 803 89 809 83 c 2
517 83 m 2
 627 -27 l 2
 632 -32 631 -37 627 -41 c 2
 515 -153 l 2
 511 -157 507 -157 502 -153 c 2
 393 -44 l 2
 387 -38 386 -31 392 -25 c 2
 499 82 l 2
 504 87 511 89 517 83 c 2
EndSplineSet
Refer: 170 65186 N 1 0 0 1 0 0 2
EndChar

StartChar: uniFB8F
Encoding: 64399 64399 104
Width: 2123
GlyphClass: 2
Flags: HW
AnchorPoint: "Anchor-7" 799 -206 basechar 0
AnchorPoint: "Anchor-10" 975 1391 basechar 0
LayerCount: 2
Fore
SplineSet
809 2 m 0
 414 2 104 101 104 455 c 0
 104 568 128 672 175 767 c 1
 276 732 l 1
 254 653 244 583 244 524 c 0
 244 249 530 180 828 180 c 0
 1288 180 1484 330 1484 405 c 0
 1484 476 1308 659 956 955 c 1
 993 1143 l 1
 1797 1437 l 2
 1825 1447 1837 1437 1832 1408 c 2
 1809 1264 l 1
 1136 1033 l 1
 1303 884 1477 705 1656 495 c 0
 1835 285 1989 181 2116 181 c 2
 2128 181 l 2
 2145 181 2153 155 2153 102 c 2
 2153 77 l 2
 2153 26 2145 0 2128 0 c 2
 2116 0 l 2
 1947 0 1779 107 1610 321 c 1
 1549 105 1170 2 809 2 c 0
EndSplineSet
EndChar

StartChar: uniFB93
Encoding: 64403 64403 108
Width: 2064
GlyphClass: 2
Flags: HW
AnchorPoint: "Anchor-7" 799 -206 basechar 0
AnchorPoint: "Anchor-10" 1013 1505 basechar 0
LayerCount: 2
Fore
SplineSet
799 179 m 0
 1196 179 1448 323 1448 403 c 0
 1448 474 1242 667 969 895 c 1
 1006 1083 l 1
 1810 1377 l 2
 1838 1387 1850 1377 1845 1348 c 2
 1822 1204 l 1
 1149 973 l 1
 1274 867 1431 703 1620 482 c 0
 1795 277 1937 180 2061 180 c 2
 2069 180 l 2
 2086 180 2094 154 2094 102 c 2
 2094 77 l 2
 2094 26 2086 0 2069 0 c 2
 2056 0 l 2
 1899 0 1736 103 1568 310 c 1
 1455 97 1140 2 826 2 c 0
 417 2 104 95 104 457 c 0
 104 570 128 673 175 767 c 1
 276 732 l 1
 254 653 244 583 244 524 c 0
 244 294 430 179 799 179 c 0
EndSplineSet
Refer: 270 -1 N 1.1342 0 0 1.1342 972 -757 2
EndChar

StartChar: uniFB94
Encoding: 64404 64404 109
Width: 974
GlyphClass: 2
Flags: HW
AnchorPoint: "Anchor-10" 280 1605 basechar 0
AnchorPoint: "Anchor-7" 334 -240 basechar 0
LayerCount: 2
Fore
SplineSet
39 895 m 1
 76 1083 l 1
 880 1377 l 2
 908 1387 920 1377 915 1348 c 2
 892 1204 l 1
 219 973 l 1
 512 728 658 531 658 382 c 0
 658 136 427 0 28 0 c 2
 -5 0 l 2
 -42 0 -60 26 -60 77 c 2
 -60 102 l 2
 -60 154 -42 180 -5 180 c 2
 28 180 l 2
 257 180 514 229 514 378 c 0
 514 460 356 632 39 895 c 1
EndSplineSet
Refer: 270 -1 N 1.1342 0 0 1.1342 42 -757 2
EndChar

StartChar: uniFB95
Encoding: 64405 64405 110
Width: 1135
GlyphClass: 2
Flags: HW
AnchorPoint: "Anchor-10" 264 1613 basechar 0
AnchorPoint: "Anchor-7" 319 -241 basechar 0
LayerCount: 2
Fore
SplineSet
524 388 m 0
 524 458 363 626 39 895 c 1
 76 1083 l 1
 880 1377 l 2
 908 1387 920 1377 915 1348 c 2
 892 1204 l 1
 218 973 l 1
 338 871 495 707 689 482 c 0
 865 278 1006 180 1129 180 c 2
 1140 180 l 2
 1157 180 1165 154 1165 102 c 2
 1165 77 l 2
 1165 26 1157 0 1140 0 c 2
 1114 0 l 2
 970 0 817 100 653 301 c 1
 583 94 329 0 28 0 c 2
 -5 0 l 2
 -42 0 -60 26 -60 77 c 2
 -60 102 l 2
 -60 154 -42 180 -5 180 c 2
 28 180 l 2
 371 180 524 301 524 388 c 0
EndSplineSet
Refer: 270 -1 N 1.1342 0 0 1.1342 42 -757 2
EndChar

StartChar: uniFB9F
Encoding: 64415 64415 112
Width: 1453
GlyphClass: 2
Flags: HW
AnchorPoint: "Anchor-10" 577 1006 basechar 0
AnchorPoint: "Anchor-7" 452 -1008 basechar 0
LayerCount: 2
Fore
SplineSet
1298 48 m 1
 1298 -331 1059 -539 667 -539 c 0
 329 -539 108 -366 108 -35 c 0
 108 101 141 241 206 385 c 1
 316 352 l 1
 278 227 259 114 259 13 c 0
 259 -235 397 -359 674 -359 c 0
 920 -359 1147 -247 1147 -17 c 0
 1147 60 1106 172 1024 328 c 1
 1120 475 l 2
 1138 503 1154 482 1171 446 c 0
 1205 375 1233 319 1257 279 c 0
 1297 213 1354 181 1427 181 c 2
 1458 181 l 2
 1475 181 1483 155 1483 102 c 2
 1483 77 l 2
 1483 26 1475 0 1458 0 c 2
 1437 0 l 2
 1372 0 1325 16 1298 48 c 1
EndSplineSet
EndChar

StartChar: uniFBE8
Encoding: 64488 64488 115
Width: 626
GlyphClass: 2
Flags: HW
AnchorPoint: "Anchor-10" 323 1302 basechar 0
AnchorPoint: "Anchor-7" 351 -260 basechar 0
LayerCount: 2
Fore
SplineSet
525 394 m 0
 525 137 355 0 101 0 c 2
 -5 0 l 2
 -42 0 -60 26 -60 77 c 2
 -60 102 l 2
 -60 154 -42 180 -5 180 c 2
 98 180 l 2
 282 180 373 235 373 346 c 0
 373 406 349 502 301 636 c 1
 412 764 l 2
 422 776 434 767 447 739 c 0
 499 632 525 517 525 394 c 0
EndSplineSet
EndChar

StartChar: uniFBE9
Encoding: 64489 64489 116
Width: 728
GlyphClass: 2
Flags: HW
AnchorPoint: "Anchor-10" 412 1159 basechar 0
AnchorPoint: "Anchor-7" 351 -219 basechar 0
LayerCount: 2
Fore
SplineSet
-5 180 m 2
 95 180 l 2
 254 180 338 231 348 334 c 2
 367 540 l 1
 482 540 l 1
 502 333 l 2
 512 231 583 180 714 180 c 2
 734 180 l 2
 750 180 758 154 758 102 c 2
 758 77 l 2
 758 26 750 0 734 0 c 2
 716 0 l 2
 576 0 479 43 424 130 c 1
 361 43 253 0 100 0 c 2
 -5 0 l 2
 -42 0 -60 26 -60 77 c 2
 -60 102 l 2
 -60 154 -42 180 -5 180 c 2
EndSplineSet
EndChar

StartChar: uniFE73
Encoding: 65139 65139 124
Width: 785
GlyphClass: 2
Flags: HW
AnchorPoint: "Anchor-10" 369 1242 basechar 0
AnchorPoint: "Anchor-7" 377 -188 basechar 0
LayerCount: 2
Fore
SplineSet
309 464 m 2
 309 275 439 180 699 180 c 2
 790 180 l 1
 790 3 l 1
 686 3 l 2
 296 3 101 150 101 444 c 2
 101 481 l 1
 309 481 l 1
 309 464 l 2
EndSplineSet
EndChar

StartChar: uniFE8E
Encoding: 65166 65166 150
Width: 541
GlyphClass: 2
Flags: HW
AnchorPoint: "Anchor-10" 208 1514 basechar 0
AnchorPoint: "Anchor-7" 250 -229 basechar 0
LayerCount: 2
Fore
SplineSet
298 552 m 0
 298 263 312 180 498 180 c 2
 547 180 l 2
 563 180 571 154 571 102 c 2
 571 77 l 2
 571 26 563 0 547 0 c 2
 493 0 l 2
 178 0 150 230 150 583 c 0
 150 954 138 1138 120 1319 c 1
 252 1406 l 2
 270 1418 280 1408 282 1377 c 0
 293 1230 298 818 298 552 c 0
EndSplineSet
EndChar

StartChar: uniFEA2
Encoding: 65186 65186 170
Width: 1319
GlyphClass: 2
Flags: HW
AnchorPoint: "Anchor-7" 562 -813 basechar 0
AnchorPoint: "Anchor-10" 590 1252 basechar 0
LayerCount: 2
Fore
SplineSet
864 417 m 1
 535 350 270 159 270 -134 c 0
 270 -368 442 -485 786 -485 c 0
 903 -485 1029 -476 1165 -458 c 0
 1178 -456 1184 -461 1182 -472 c 2
 1156 -575 l 2
 1146 -612 1116 -633 1067 -640 c 0
 998 -649 911 -655 808 -655 c 0
 409 -655 123 -515 123 -164 c 0
 123 218 377 485 775 560 c 1
 652 591 454 628 389 628 c 0
 318 628 250 588 185 509 c 1
 99 549 l 1
 161 699 239 815 385 815 c 0
 464 815 559 786 673 751 c 0
 813 708 984 657 1203 636 c 0
 1215 635 1218 629 1213 616 c 2
 1144 453 l 1
 1096 452 1047 447 998 441 c 1
 1000 272 1113 180 1305 180 c 2
 1325 180 l 2
 1341 180 1349 154 1349 102 c 2
 1349 77 l 2
 1349 26 1341 0 1325 0 c 2
 1303 0 l 2
 1008 0 866 164 864 417 c 1
EndSplineSet
EndChar

StartChar: uniFEA3
Encoding: 65187 65187 171
Width: 1300
GlyphClass: 2
Flags: HW
AnchorPoint: "Anchor-10" 527 1134 basechar 0
AnchorPoint: "Anchor-7" 501 -227 basechar 0
LayerCount: 2
Fore
SplineSet
201 446 m 1
 116 486 l 1
 188 666 290 768 437 768 c 0
 489 768 578 737 710 675 c 0
 922 576 1093 527 1223 526 c 0
 1241 526 1248 516 1242 496 c 2
 1197 345 l 1
 1091 342 931 280 717 158 c 0
 531 52 346 0 162 0 c 2
 -5 0 l 2
 -42 0 -60 26 -60 77 c 2
 -60 102 l 2
 -60 154 -42 180 -5 180 c 2
 196 180 l 2
 412 180 695 303 899 426 c 1
 861 434 770 466 625 524 c 0
 532 561 461 580 410 580 c 0
 344 580 274 535 201 446 c 1
EndSplineSet
EndChar

StartChar: uniFEA4
Encoding: 65188 65188 172
Width: 1326
GlyphClass: 2
Flags: HW
AnchorPoint: "Anchor-10" 532 1136 basechar 0
AnchorPoint: "Anchor-7" 536 -224 basechar 0
LayerCount: 2
Fore
SplineSet
201 446 m 1
 116 486 l 1
 188 666 290 768 437 768 c 0
 489 768 578 737 710 675 c 0
 922 576 1093 527 1223 526 c 0
 1241 526 1248 516 1242 496 c 2
 1197 345 l 1
 1138 343 1062 324 969 285 c 1
 970 216 1019 180 1115 180 c 2
 1332 180 l 2
 1348 180 1356 154 1356 102 c 2
 1356 77 l 2
 1356 26 1348 0 1332 0 c 2
 1120 0 l 2
 956 0 866 80 856 234 c 1
 663 122 451 0 162 0 c 2
 -5 0 l 2
 -42 0 -60 26 -60 77 c 2
 -60 102 l 2
 -60 154 -42 180 -5 180 c 2
 196 180 l 2
 412 180 695 303 899 426 c 1
 861 434 770 466 625 524 c 0
 532 561 461 580 410 580 c 0
 344 580 274 535 201 446 c 1
EndSplineSet
EndChar

StartChar: uniFEAA
Encoding: 65194 65194 178
Width: 1122
GlyphClass: 2
Flags: HW
AnchorPoint: "Anchor-10" 621 1233 basechar 0
AnchorPoint: "Anchor-7" 440 -231 basechar 0
LayerCount: 2
Fore
SplineSet
820 191 m 1
 735 64 601 0 416 -0 c 0
 209 0 105 76 105 228 c 0
 105 261 110 297 119 337 c 1
 230 326 l 1
 230 312 l 2
 230 213 296 180 417 180 c 0
 574 180 736 211 736 334 c 0
 736 355 734 361 727 382 c 2
 565 845 l 1
 655 961 l 2
 674 985 688 982 699 949 c 2
 878 426 l 2
 934 262 1014 180 1116 180 c 2
 1128 180 l 2
 1144 180 1152 154 1152 102 c 2
 1152 77 l 2
 1152 26 1144 0 1128 0 c 2
 1112 0 l 2
 981 0 883 64 820 191 c 1
EndSplineSet
PairPos2: "'kern' Horizontal Kerning lookup 0 subtable 4" uni06AF dx=-120 dy=0 dh=-120 dv=0 dx=0 dy=0 dh=0 dv=0
PairPos2: "'kern' Horizontal Kerning lookup 0 subtable 4" uniFB94 dx=-120 dy=0 dh=-120 dv=0 dx=0 dy=0 dh=0 dv=0
PairPos2: "'kern' Horizontal Kerning lookup 0 subtable 4" uni06A9 dx=-120 dy=0 dh=-120 dv=0 dx=0 dy=0 dh=0 dv=0
PairPos2: "'kern' Horizontal Kerning lookup 0 subtable 4" uniFB90 dx=-120 dy=0 dh=-120 dv=0 dx=0 dy=0 dh=0 dv=0
EndChar

StartChar: uniFEAE
Encoding: 65198 65198 182
Width: 854
GlyphClass: 2
Flags: HW
AnchorPoint: "Anchor-7" 350 -718 basechar 0
AnchorPoint: "Anchor-10" 464 923 basechar 0
LayerCount: 2
Fore
SplineSet
664 47 m 1
 621 -393 176 -537 107 -537 c 0
 91 -537 73 -526 58 -508 c 2
 19 -459 l 2
 3 -437 -14 -409 16 -401 c 0
 311 -320 517 -156 517 71 c 0
 517 162 476 260 427 329 c 1
 550 497 l 1
 583 432 634 336 662 288 c 0
 703 216 759 180 829 180 c 2
 860 180 l 2
 876 180 884 154 884 102 c 2
 884 77 l 2
 884 26 876 0 860 0 c 2
 834 0 l 2
 770 0 708 18 664 47 c 1
EndSplineSet
PairPos2: "'kern' Horizontal Kerning lookup 0 subtable 0" uni067E dx=-128 dy=0 dh=-128 dv=0 dx=0 dy=0 dh=0 dv=0
PairPos2: "'kern' Horizontal Kerning lookup 0 subtable 0" uniFB56 dx=-128 dy=0 dh=-128 dv=0 dx=0 dy=0 dh=0 dv=0
PairPos2: "'kern' Horizontal Kerning lookup 0 subtable 0" uni06AF dx=-235 dy=0 dh=-235 dv=0 dx=0 dy=0 dh=0 dv=0
PairPos2: "'kern' Horizontal Kerning lookup 0 subtable 0" uniFB94 dx=-235 dy=0 dh=-235 dv=0 dx=0 dy=0 dh=0 dv=0
PairPos2: "'kern' Horizontal Kerning lookup 0 subtable 0" uni0622 dx=-150 dy=0 dh=-150 dv=0 dx=0 dy=0 dh=0 dv=0
PairPos2: "'kern' Horizontal Kerning lookup 0 subtable 0" uni0627 dx=-150 dy=0 dh=-150 dv=0 dx=0 dy=0 dh=0 dv=0
PairPos2: "'kern' Horizontal Kerning lookup 0 subtable 0" uni0628 dx=-128 dy=0 dh=-128 dv=0 dx=0 dy=0 dh=0 dv=0
PairPos2: "'kern' Horizontal Kerning lookup 0 subtable 0" uni0629 dx=-128 dy=0 dh=-128 dv=0 dx=0 dy=0 dh=0 dv=0
PairPos2: "'kern' Horizontal Kerning lookup 0 subtable 0" uni062A dx=-128 dy=0 dh=-128 dv=0 dx=0 dy=0 dh=0 dv=0
PairPos2: "'kern' Horizontal Kerning lookup 0 subtable 0" uniFE97 dx=-128 dy=0 dh=-128 dv=0 dx=0 dy=0 dh=0 dv=0
PairPos2: "'kern' Horizontal Kerning lookup 0 subtable 0" uni062B dx=-128 dy=0 dh=-128 dv=0 dx=0 dy=0 dh=0 dv=0
PairPos2: "'kern' Horizontal Kerning lookup 0 subtable 0" uniFE9B dx=-128 dy=0 dh=-128 dv=0 dx=0 dy=0 dh=0 dv=0
PairPos2: "'kern' Horizontal Kerning lookup 0 subtable 0" uniFE9F dx=-128 dy=0 dh=-128 dv=0 dx=0 dy=0 dh=0 dv=0
PairPos2: "'kern' Horizontal Kerning lookup 0 subtable 0" uniFEA3 dx=-128 dy=0 dh=-128 dv=0 dx=0 dy=0 dh=0 dv=0
PairPos2: "'kern' Horizontal Kerning lookup 0 subtable 0" uniFEA7 dx=-128 dy=0 dh=-128 dv=0 dx=0 dy=0 dh=0 dv=0
PairPos2: "'kern' Horizontal Kerning lookup 0 subtable 0" uni062F dx=-128 dy=0 dh=-128 dv=0 dx=0 dy=0 dh=0 dv=0
PairPos2: "'kern' Horizontal Kerning lookup 0 subtable 0" uni0630 dx=-128 dy=0 dh=-128 dv=0 dx=0 dy=0 dh=0 dv=0
PairPos2: "'kern' Horizontal Kerning lookup 0 subtable 0" uni0633 dx=-128 dy=0 dh=-128 dv=0 dx=0 dy=0 dh=0 dv=0
PairPos2: "'kern' Horizontal Kerning lookup 0 subtable 0" uniFEB3 dx=-128 dy=0 dh=-128 dv=0 dx=0 dy=0 dh=0 dv=0
PairPos2: "'kern' Horizontal Kerning lookup 0 subtable 0" uni0634 dx=-128 dy=0 dh=-128 dv=0 dx=0 dy=0 dh=0 dv=0
PairPos2: "'kern' Horizontal Kerning lookup 0 subtable 0" uniFEB7 dx=-128 dy=0 dh=-128 dv=0 dx=0 dy=0 dh=0 dv=0
PairPos2: "'kern' Horizontal Kerning lookup 0 subtable 0" uni0635 dx=-128 dy=0 dh=-128 dv=0 dx=0 dy=0 dh=0 dv=0
PairPos2: "'kern' Horizontal Kerning lookup 0 subtable 0" uniFEBB dx=-128 dy=0 dh=-128 dv=0 dx=0 dy=0 dh=0 dv=0
PairPos2: "'kern' Horizontal Kerning lookup 0 subtable 0" uni0636 dx=-128 dy=0 dh=-128 dv=0 dx=0 dy=0 dh=0 dv=0
PairPos2: "'kern' Horizontal Kerning lookup 0 subtable 0" uniFEBF dx=-128 dy=0 dh=-128 dv=0 dx=0 dy=0 dh=0 dv=0
PairPos2: "'kern' Horizontal Kerning lookup 0 subtable 0" uni0637 dx=-128 dy=0 dh=-128 dv=0 dx=0 dy=0 dh=0 dv=0
PairPos2: "'kern' Horizontal Kerning lookup 0 subtable 0" uniFEC3 dx=-128 dy=0 dh=-128 dv=0 dx=0 dy=0 dh=0 dv=0
PairPos2: "'kern' Horizontal Kerning lookup 0 subtable 0" uni0638 dx=-128 dy=0 dh=-128 dv=0 dx=0 dy=0 dh=0 dv=0
PairPos2: "'kern' Horizontal Kerning lookup 0 subtable 0" uniFEC7 dx=-128 dy=0 dh=-128 dv=0 dx=0 dy=0 dh=0 dv=0
PairPos2: "'kern' Horizontal Kerning lookup 0 subtable 0" uniFECB dx=-128 dy=0 dh=-128 dv=0 dx=0 dy=0 dh=0 dv=0
PairPos2: "'kern' Horizontal Kerning lookup 0 subtable 0" uniFECF dx=-128 dy=0 dh=-128 dv=0 dx=0 dy=0 dh=0 dv=0
PairPos2: "'kern' Horizontal Kerning lookup 0 subtable 0" uni0641 dx=-128 dy=0 dh=-128 dv=0 dx=0 dy=0 dh=0 dv=0
PairPos2: "'kern' Horizontal Kerning lookup 0 subtable 0" uniFED3 dx=-128 dy=0 dh=-128 dv=0 dx=0 dy=0 dh=0 dv=0
PairPos2: "'kern' Horizontal Kerning lookup 0 subtable 0" uniFED7 dx=-128 dy=0 dh=-128 dv=0 dx=0 dy=0 dh=0 dv=0
PairPos2: "'kern' Horizontal Kerning lookup 0 subtable 0" uniFEDB dx=-213 dy=0 dh=-213 dv=0 dx=0 dy=0 dh=0 dv=0
PairPos2: "'kern' Horizontal Kerning lookup 0 subtable 0" uni0645 dx=-128 dy=0 dh=-128 dv=0 dx=0 dy=0 dh=0 dv=0
PairPos2: "'kern' Horizontal Kerning lookup 0 subtable 0" uniFEE3 dx=-128 dy=0 dh=-128 dv=0 dx=0 dy=0 dh=0 dv=0
PairPos2: "'kern' Horizontal Kerning lookup 0 subtable 0" uniFEE7 dx=-128 dy=0 dh=-128 dv=0 dx=0 dy=0 dh=0 dv=0
PairPos2: "'kern' Horizontal Kerning lookup 0 subtable 0" uni0647 dx=-128 dy=0 dh=-128 dv=0 dx=0 dy=0 dh=0 dv=0
PairPos2: "'kern' Horizontal Kerning lookup 0 subtable 0" uni0649 dx=-43 dy=0 dh=-43 dv=0 dx=0 dy=0 dh=0 dv=0
PairPos2: "'kern' Horizontal Kerning lookup 0 subtable 0" uni06A9 dx=-213 dy=0 dh=-213 dv=0 dx=0 dy=0 dh=0 dv=0
PairPos2: "'kern' Horizontal Kerning lookup 0 subtable 0" uniFB90 dx=-213 dy=0 dh=-213 dv=0 dx=0 dy=0 dh=0 dv=0
PairPos2: "'kern' Horizontal Kerning lookup 0 subtable 0" uniFEDF dx=-128 dy=0 dh=-128 dv=0 dx=0 dy=0 dh=0 dv=0
PairPos2: "'kern' Horizontal Kerning lookup 0 subtable 0" uniFEEB dx=-128 dy=0 dh=-128 dv=0 dx=0 dy=0 dh=0 dv=0
PairPos2: "'kern' Horizontal Kerning lookup 0 subtable 0" uni06CC dx=-43 dy=0 dh=-43 dv=0 dx=0 dy=0 dh=0 dv=0
PairPos2: "'kern' Horizontal Kerning lookup 0 subtable 0" uniFB7C dx=-128 dy=0 dh=-128 dv=0 dx=0 dy=0 dh=0 dv=0
PairPos2: "'kern' Horizontal Kerning lookup 0 subtable 0" uni0698 dx=-43 dy=0 dh=-43 dv=0 dx=0 dy=0 dh=0 dv=0
PairPos2: "'kern' Horizontal Kerning lookup 0 subtable 0" uniFB8A dx=-43 dy=0 dh=-43 dv=0 dx=0 dy=0 dh=0 dv=0
PairPos2: "'kern' Horizontal Kerning lookup 0 subtable 0" uni0631 dx=-43 dy=0 dh=-43 dv=0 dx=0 dy=0 dh=0 dv=0
PairPos2: "'kern' Horizontal Kerning lookup 0 subtable 0" uni0632 dx=-43 dy=0 dh=-43 dv=0 dx=0 dy=0 dh=0 dv=0
PairPos2: "'kern' Horizontal Kerning lookup 0 subtable 0" uni0642 dx=-43 dy=0 dh=-43 dv=0 dx=0 dy=0 dh=0 dv=0
PairPos2: "'kern' Horizontal Kerning lookup 0 subtable 0" uni0644 dx=-43 dy=0 dh=-43 dv=0 dx=0 dy=0 dh=0 dv=0
PairPos2: "'kern' Horizontal Kerning lookup 0 subtable 2" uni0648 dx=-43 dy=0 dh=-43 dv=0 dx=0 dy=0 dh=0 dv=0
PairPos2: "'kern' Horizontal Kerning lookup 0 subtable 3" uni0621 dx=-128 dy=0 dh=-128 dv=0 dx=0 dy=0 dh=0 dv=0
PairPos2: "'kern' Horizontal Kerning lookup 0 subtable 0" uniFBFE dx=20 dy=0 dh=20 dv=0 dx=0 dy=0 dh=0 dv=0
PairPos2: "'kern' Horizontal Kerning lookup 0 subtable 0" uniFB58 dx=20 dy=0 dh=20 dv=0 dx=0 dy=0 dh=0 dv=0
PairPos2: "'kern' Horizontal Kerning lookup 0 subtable 0" uniFEF3 dx=20 dy=0 dh=20 dv=0 dx=0 dy=0 dh=0 dv=0
PairPos2: "'kern' Horizontal Kerning lookup 0 subtable 3" uni06C0 dx=-128 dy=0 dh=-128 dv=0 dx=0 dy=0 dh=0 dv=0
EndChar

StartChar: uniFEB2
Encoding: 65202 65202 186
Width: 2463
GlyphClass: 2
Flags: HW
AnchorPoint: "Anchor-10" 1664 1102 basechar 0
AnchorPoint: "Anchor-7" 636 -764 basechar 0
LayerCount: 2
Fore
SplineSet
1298 48 m 1
 1298 -338 1058 -539 667 -539 c 0
 329 -539 108 -366 108 -35 c 0
 108 101 141 241 206 385 c 1
 316 352 l 1
 278 227 259 114 259 13 c 0
 259 -235 397 -359 674 -359 c 0
 935 -359 1147 -239 1147 -17 c 0
 1147 60 1106 172 1024 328 c 1
 1120 475 l 2
 1138 503 1154 482 1171 446 c 0
 1205 375 1233 319 1257 279 c 0
 1297 214 1364 180 1458 180 c 0
 1550 180 1603 231 1614 332 c 2
 1635 522 l 1
 1749 522 l 1
 1769 332 l 2
 1780 231 1838 180 1941 180 c 0
 2029 180 2078 232 2087 335 c 2
 2105 540 l 1
 2223 540 l 1
 2243 335 l 2
 2253 231 2322 180 2450 180 c 2
 2470 180 l 2
 2486 180 2494 154 2494 102 c 2
 2494 77 l 2
 2494 26 2486 0 2470 0 c 2
 2449 0 l 2
 2300 0 2206 44 2166 132 c 1
 2123 44 2048 0 1939 -0 c 0
 1822 0 1740 43 1692 129 c 1
 1628 43 1550 0 1460 0 c 0
 1381 0 1327 16 1298 48 c 1
EndSplineSet
EndChar

StartChar: uniFEB3
Encoding: 65203 65203 187
Width: 1532
GlyphClass: 2
Flags: HW
AnchorPoint: "Anchor-10" 845 1020 basechar 0
AnchorPoint: "Anchor-7" 815 -263 basechar 0
LayerCount: 2
Fore
SplineSet
1114 180 m 0
 1224 180 1280 233 1280 339 c 0
 1280 377 1253 468 1201 613 c 1
 1310 739 l 2
 1321 752 1334 745 1348 716 c 0
 1403 596 1431 483 1431 375 c 0
 1431 188 1302 0 1123 -0 c 0
 1001 0 916 43 869 129 c 1
 804 43 721 0 619 0 c 0
 506 0 425 43 378 129 c 1
 322 43 220 0 72 0 c 2
 -5 0 l 2
 -42 0 -60 26 -60 77 c 2
 -60 102 l 2
 -60 154 -42 180 -5 180 c 2
 77 180 l 2
 223 180 301 231 310 332 c 2
 327 523 l 1
 441 523 l 1
 458 334 l 2
 467 231 522 180 624 180 c 0
 729 180 786 230 795 331 c 2
 813 522 l 1
 926 522 l 1
 943 330 l 2
 952 230 1009 180 1114 180 c 0
EndSplineSet
EndChar

StartChar: uniFEB4
Encoding: 65204 65204 188
Width: 1641
GlyphClass: 2
Flags: HW
AnchorPoint: "Anchor-10" 845 1020 basechar 0
AnchorPoint: "Anchor-7" 864 -268 basechar 0
LayerCount: 2
Fore
SplineSet
1116 -0 m 0
 999 0 916 43 869 129 c 1
 804 43 721 0 619 0 c 0
 506 0 425 43 378 129 c 1
 322 43 220 0 72 0 c 2
 -5 0 l 2
 -42 0 -60 26 -60 77 c 2
 -60 102 l 2
 -60 154 -42 180 -5 180 c 2
 77 180 l 2
 224 180 301 230 310 331 c 2
 327 522 l 1
 441 522 l 1
 457 335 l 2
 466 232 522 180 625 180 c 0
 729 180 786 231 795 333 c 2
 813 522 l 1
 926 522 l 1
 943 332 l 2
 952 231 1010 180 1118 180 c 0
 1211 180 1261 232 1268 335 c 2
 1282 540 l 1
 1400 540 l 1
 1416 335 l 2
 1424 231 1494 180 1627 180 c 2
 1647 180 l 2
 1663 180 1671 154 1671 102 c 2
 1671 77 l 2
 1671 26 1663 0 1647 0 c 2
 1626 0 l 2
 1477 0 1383 45 1343 136 c 1
 1300 45 1225 0 1116 -0 c 0
EndSplineSet
EndChar

StartChar: uniFEBA
Encoding: 65210 65210 194
Width: 2651
GlyphClass: 2
Flags: HW
AnchorPoint: "Anchor-10" 2100 1170 basechar 0
AnchorPoint: "Anchor-7" 627 -758 basechar 0
LayerCount: 2
Fore
SplineSet
1298 48 m 1
 1298 -346 1058 -539 667 -539 c 0
 329 -539 108 -366 108 -35 c 0
 108 101 141 241 206 385 c 1
 316 352 l 1
 278 227 259 114 259 13 c 0
 259 -235 397 -359 674 -359 c 0
 920 -359 1147 -245 1147 -17 c 0
 1147 60 1106 172 1024 328 c 1
 1120 475 l 1
 1141 502 1152 483 1171 446 c 2
 1243 301 l 2
 1286 218 1358 181 1452 181 c 1
 1688 556 1927 743 2169 743 c 0
 2373 743 2502 606 2502 419 c 0
 2502 318 2474 239 2416 180 c 1
 2657 180 l 2
 2673 180 2681 154 2681 102 c 2
 2681 77 l 2
 2681 26 2673 0 2657 0 c 2
 2607 0 l 2
 2471 0 2358 23 2269 70 c 1
 2168 23 2023 0 1832 0 c 2
 1587 0 l 2
 1437 0 1341 16 1298 48 c 1
1602 181 m 1
 1843 181 l 2
 2141 181 2342 211 2342 400 c 0
 2342 505 2269 566 2156 566 c 0
 1998 566 1814 438 1602 181 c 1
EndSplineSet
EndChar

StartChar: uniFEBB
Encoding: 65211 65211 195
Width: 1685
GlyphClass: 2
Flags: HW
AnchorPoint: "Anchor-10" 1133 1208 basechar 0
AnchorPoint: "Anchor-7" 627 -248 basechar 0
LayerCount: 2
Fore
SplineSet
1252 743 m 0
 1456 743 1583 608 1583 419 c 0
 1583 139 1360 0 914 0 c 2
 670 0 l 2
 500 0 380 43 314 129 c 1
 257 43 162 0 28 0 c 2
 -5 0 l 2
 -42 0 -60 26 -60 77 c 2
 -60 102 l 2
 -60 154 -42 180 -5 180 c 2
 29 180 l 2
 153 180 222 231 234 334 c 2
 257 530 l 1
 372 530 l 1
 396 333 l 2
 407 242 453 191 535 181 c 1
 771 556 1010 743 1252 743 c 0
685 181 m 1
 926 181 l 2
 1179 181 1424 193 1424 400 c 0
 1424 505 1352 566 1239 566 c 0
 1081 566 897 438 685 181 c 1
EndSplineSet
EndChar

StartChar: uniFEBC
Encoding: 65212 65212 196
Width: 1733
GlyphClass: 2
Flags: HW
AnchorPoint: "Anchor-10" 1143 1218 basechar 0
AnchorPoint: "Anchor-7" 643 -236 basechar 0
LayerCount: 2
Fore
SplineSet
685 181 m 1
 926 181 l 2
 1224 181 1424 206 1424 400 c 0
 1424 505 1352 566 1239 566 c 0
 1081 566 897 438 685 181 c 1
1252 743 m 0
 1456 743 1585 606 1585 419 c 0
 1585 318 1556 239 1498 180 c 1
 1740 180 l 2
 1756 180 1764 154 1764 102 c 2
 1764 77 l 2
 1764 26 1756 0 1740 -0 c 2
 1690 -0 l 2
 1554 0 1442 23 1352 70 c 1
 1251 23 1105 0 914 -0 c 2
 670 -0 l 2
 500 0 380 43 314 129 c 1
 257 43 162 0 28 0 c 2
 -5 0 l 2
 -42 0 -60 26 -60 77 c 2
 -60 102 l 2
 -60 154 -42 180 -5 180 c 2
 29 180 l 2
 153 180 222 231 234 334 c 2
 257 530 l 1
 372 530 l 1
 396 333 l 2
 407 242 453 191 535 181 c 1
 771 556 1010 743 1252 743 c 0
EndSplineSet
EndChar

StartChar: uniFEC2
Encoding: 65218 65218 202
Width: 1582
GlyphClass: 2
Flags: HW
AnchorPoint: "Anchor-7" 683 -220 basechar 0
AnchorPoint: "Anchor-10" 456 1533 basechar 0
LayerCount: 2
Fore
SplineSet
220 0 m 1
 108 155 l 2
 100 164 105 181 124 181 c 2
 393 181 l 1
 416 215 440 248 462 282 c 1
 462 496 420 1143 399 1320 c 1
 549 1407 l 2
 566 1417 575 1409 575 1382 c 2
 591 451 l 1
 758 647 930 745 1107 745 c 0
 1308 745 1437 602 1437 418 c 0
 1437 316 1409 237 1352 180 c 1
 1589 180 l 2
 1605 180 1613 155 1613 103 c 2
 1613 78 l 2
 1613 27 1605 1 1589 1 c 2
 1539 1 l 2
 1430 1 1318 24 1203 71 c 1
 1103 24 955 0 759 0 c 2
 220 0 l 1
1277 400 m 0
 1277 506 1207 566 1093 566 c 0
 936 566 751 438 539 181 c 1
 770 181 l 2
 1075 181 1277 204 1277 400 c 0
EndSplineSet
EndChar

StartChar: uniFEC3
Encoding: 65219 65219 203
Width: 1296
GlyphClass: 2
Flags: HW
AnchorPoint: "Anchor-7" 483 -230 basechar 0
AnchorPoint: "Anchor-10" 211 1511 basechar 0
LayerCount: 2
Fore
SplineSet
1035 400 m 0
 1035 505 963 566 850 566 c 0
 692 566 508 438 296 181 c 1
 537 181 l 2
 835 181 1035 208 1035 400 c 0
-5 0 m 2
 -42 0 -60 26 -60 77 c 2
 -60 102 l 2
 -60 154 -42 180 -5 180 c 10
 150 180 l 1
 172 214 195 248 219 282 c 1
 218 372 198 931 156 1320 c 1
 306 1407 l 2
 323 1417 332 1409 332 1382 c 2
 348 451 l 1
 514 645 686 743 863 743 c 0
 1067 743 1194 608 1194 419 c 0
 1194 139 974 0 535 0 c 2
 -5 0 l 2
EndSplineSet
EndChar

StartChar: uniFEC4
Encoding: 65220 65220 204
Width: 1339
GlyphClass: 2
Flags: HW
AnchorPoint: "Anchor-7" 476 -225 basechar 0
AnchorPoint: "Anchor-10" 205 1522 basechar 0
LayerCount: 2
Fore
SplineSet
-5 0 m 2
 -42 0 -60 26 -60 77 c 2
 -60 102 l 2
 -60 154 -42 180 -5 180 c 2
 150 180 l 1
 172 214 195 248 219 282 c 1
 218 372 198 931 156 1320 c 1
 306 1407 l 2
 323 1417 332 1409 332 1382 c 2
 348 451 l 1
 514 645 686 743 863 743 c 0
 1067 743 1194 608 1194 419 c 0
 1194 325 1167 245 1112 181 c 1
 1345 181 l 2
 1361 181 1369 155 1369 103 c 2
 1369 78 l 2
 1369 27 1361 1 1345 1 c 2
 1295 1 l 2
 1185 1 1074 25 960 72 c 1
 854 25 712 0 535 0 c 2
 -5 0 l 2
1035 400 m 0
 1035 505 963 566 850 566 c 0
 692 566 508 438 296 181 c 1
 537 181 l 2
 835 181 1035 208 1035 400 c 0
EndSplineSet
EndChar

StartChar: uniFECA
Encoding: 65226 65226 210
Width: 1263
GlyphClass: 2
Flags: HW
AnchorPoint: "Anchor-7" 562 -813 basechar 0
AnchorPoint: "Anchor-10" 644 1193 basechar 0
LayerCount: 2
Fore
SplineSet
684 818 m 0
 897 818 1009 769 1009 669 c 0
 1009 593 948 513 827 428 c 1
 867 264 1001 181 1229 180 c 2
 1269 180 l 2
 1285 180 1293 154 1293 102 c 2
 1293 77 l 2
 1293 26 1285 0 1269 0 c 2
 1233 0 l 6
 920 0 754 125 712 379 c 5
 432 287 250 120 250 -130 c 0
 250 -367 422 -485 766 -485 c 0
 883 -485 1009 -476 1145 -458 c 0
 1158 -456 1164 -461 1162 -472 c 2
 1136 -575 l 2
 1126 -612 1096 -633 1047 -640 c 0
 978 -649 891 -655 788 -655 c 0
 386 -655 103 -516 103 -158 c 0
 103 207 356 432 650 537 c 1
 619 600 514 634 340 634 c 1
 340 750 l 1
 412 795 527 818 684 818 c 0
EndSplineSet
EndChar

StartChar: uniFECB
Encoding: 65227 65227 211
Width: 1003
GlyphClass: 2
Flags: HW
AnchorPoint: "Anchor-10" 466 1172 basechar 0
AnchorPoint: "Anchor-7" 448 -231 basechar 0
LayerCount: 2
Fore
SplineSet
125 430 m 0
 125 662 298 841 517 841 c 0
 629 841 727 800 810 719 c 1
 764 598 l 1
 664 637 588 656 535 656 c 0
 377 656 264 504 264 448 c 0
 264 381 342 310 484 221 c 1
 864 313 l 2
 893 320 906 313 902 291 c 2
 877 146 l 1
 551 50 280 1 63 0 c 2
 -5 0 l 2
 -42 0 -60 26 -60 77 c 2
 -60 102 l 2
 -60 154 -42 180 -5 180 c 2
 266 180 l 1
 172 251 125 334 125 430 c 0
EndSplineSet
EndChar

StartChar: uniFECC
Encoding: 65228 65228 212
Width: 959
GlyphClass: 2
Flags: HW
AnchorPoint: "Anchor-10" 483 1068 basechar 0
AnchorPoint: "Anchor-7" 429 -231 basechar 0
LayerCount: 2
Fore
SplineSet
488 684 m 0
 699 684 806 638 806 547 c 0
 806 486 745 406 625 306 c 1
 682 222 782 180 923 180 c 2
 965 180 l 2
 981 180 989 154 989 102 c 2
 989 77 l 2
 989 26 981 0 965 0 c 2
 920 0 l 2
 768 0 636 57 531 178 c 5
 395 58 241 1 62 0 c 2
 -5 0 l 2
 -42 0 -60 26 -60 77 c 2
 -60 102 l 2
 -60 154 -42 180 -5 180 c 2
 64 180 l 2
 259 180 392 216 463 309 c 1
 452 415 335 485 145 498 c 1
 145 614 l 1
 221 660 336 684 488 684 c 0
EndSplineSet
EndChar

StartChar: uniFEDA
Encoding: 65242 65242 226
Width: 1936
GlyphClass: 2
Flags: HW
AnchorPoint: "Anchor-10" 887 1527 basechar 0
AnchorPoint: "Anchor-7" 801 -213 basechar 0
LayerCount: 2
Fore
SplineSet
1163 871 m 0
 1163 727 1055 649 889 649 c 0
 810 649 745 660 670 684 c 1
 684 825 l 1
 755 800 820 787 880 787 c 0
 1002 787 1075 817 1075 858 c 0
 1075 901 1007 922 940 937 c 0
 827 962 771 1027 771 1134 c 0
 771 1273 877 1347 1089 1365 c 0
 1119 1365 1144 1360 1132 1330 c 1
 1095 1225 l 1
 934 1209 849 1176 849 1125 c 0
 849 1095 901 1071 1005 1053 c 0
 1111 1035 1163 975 1163 871 c 0
1580 563 m 0
 1580 781 1579 945 1538 1299 c 1
 1685 1413 l 2
 1706 1430 1722 1428 1722 1390 c 2
 1723 550 l 2
 1723 305 1786 181 1913 180 c 1
 1942 180 l 2
 1958 180 1966 154 1966 102 c 2
 1966 77 l 2
 1966 26 1958 0 1942 0 c 2
 1913 0 l 1
 1783 1 1695 73 1645 217 c 1
 1573 74 1294 2 809 2 c 0
 414 2 104 101 104 455 c 0
 104 568 128 672 175 767 c 1
 276 732 l 1
 254 653 244 583 244 524 c 0
 244 268 487 180 823 180 c 0
 1107 180 1377 212 1537 300 c 0
 1565 316 1580 404 1580 563 c 0
EndSplineSet
EndChar

StartChar: uniFEDB
Encoding: 65243 65243 227
Width: 975
GlyphClass: 2
Flags: HW
AnchorPoint: "Anchor-10" 251 1472 basechar 0
AnchorPoint: "Anchor-7" 335 -262 basechar 0
LayerCount: 2
Fore
SplineSet
-5 0 m 2
 -42 0 -60 26 -60 77 c 2
 -60 102 l 2
 -60 154 -42 180 -5 180 c 2
 97 180 l 2
 322 180 558 253 558 380 c 0
 558 478 381 666 39 955 c 1
 76 1143 l 1
 880 1437 l 2
 908 1447 920 1437 915 1408 c 2
 892 1264 l 1
 219 1033 l 1
 539 746 698 538 698 385 c 0
 698 108 399 0 97 0 c 2
 -5 0 l 2
EndSplineSet
EndChar

StartChar: uniFEDC
Encoding: 65244 65244 228
Width: 1211
GlyphClass: 2
Flags: HW
AnchorPoint: "Anchor-10" 243 1473 basechar 0
AnchorPoint: "Anchor-7" 405 -250 basechar 0
LayerCount: 2
Fore
SplineSet
39 955 m 1
 76 1143 l 1
 880 1437 l 2
 908 1447 920 1437 915 1408 c 2
 892 1264 l 1
 219 1033 l 1
 422 849 599 667 749 487 c 0
 920 282 1075 180 1208 180 c 2
 1217 180 l 2
 1233 180 1241 154 1241 102 c 2
 1241 77 l 2
 1241 26 1233 0 1217 0 c 2
 1204 0 l 2
 1032 0 866 105 707 316 c 1
 627 148 474 0 95 0 c 2
 -5 0 l 2
 -42 0 -60 26 -60 77 c 2
 -60 102 l 2
 -60 154 -42 180 -5 180 c 2
 96 180 l 2
 338 180 568 255 568 405 c 0
 568 483 391 657 39 955 c 1
EndSplineSet
EndChar

StartChar: uniFEDE
Encoding: 65246 65246 230
Width: 1379
GlyphClass: 2
Flags: HW
AnchorPoint: "Anchor-10" 587 1004 basechar 0
AnchorPoint: "Anchor-7" 617 -751 basechar 0
LayerCount: 2
Fore
SplineSet
649 -539 m 0
 319 -539 107 -348 107 -25 c 0
 107 101 141 238 210 385 c 1
 320 352 l 1
 280 223 260 113 260 19 c 0
 260 -233 392 -359 655 -359 c 0
 925 -359 1031 -241 1031 38 c 0
 1031 338 988 1151 972 1313 c 1
 1117 1400 l 2
 1136 1411 1145 1405 1146 1382 c 2
 1169 362 l 2
 1172 241 1236 180 1361 180 c 2
 1385 180 l 2
 1401 180 1409 154 1409 102 c 2
 1409 77 l 2
 1409 26 1401 0 1385 0 c 2
 1362 0 l 2
 1263 0 1201 19 1174 59 c 1
 1173 -340 999 -539 649 -539 c 0
EndSplineSet
EndChar

StartChar: uniFEDF
Encoding: 65247 65247 231
Width: 556
GlyphClass: 2
Flags: HW
AnchorPoint: "Anchor-10" 259 1523 basechar 0
AnchorPoint: "Anchor-7" 183 -251 basechar 0
LayerCount: 2
Fore
SplineSet
-5 180 m 2
 17 180 l 2
 233 180 269 212 269 449 c 0
 269 670 250 886 207 1313 c 1
 344 1393 l 2
 368 1407 380 1401 381 1376 c 0
 395 1072 412 631 412 462 c 0
 412 137 321 0 11 0 c 2
 -5 0 l 2
 -42 0 -60 26 -60 77 c 2
 -60 102 l 2
 -60 154 -42 180 -5 180 c 2
EndSplineSet
EndChar

StartChar: uniFEE0
Encoding: 65248 65248 232
Width: 651
GlyphClass: 2
Flags: HW
AnchorPoint: "Anchor-10" 288 1508 basechar 0
AnchorPoint: "Anchor-7" 284 -248 basechar 0
LayerCount: 2
Fore
SplineSet
-5 180 m 2
 40 180 l 2
 223 180 269 299 269 480 c 0
 269 665 249 1033 233 1314 c 1
 382 1403 l 2
 399 1413 407 1406 407 1382 c 2
 407 431 l 2
 407 264 481 180 627 180 c 2
 657 180 l 2
 673 180 681 154 681 102 c 2
 681 77 l 2
 681 26 673 0 657 0 c 2
 626 0 l 2
 488 0 387 49 324 148 c 1
 247 49 155 0 46 0 c 2
 -5 0 l 2
 -42 0 -60 26 -60 77 c 2
 -60 102 l 2
 -60 154 -42 180 -5 180 c 2
EndSplineSet
EndChar

StartChar: uniFEE2
Encoding: 65250 65250 234
Width: 1249
GlyphClass: 2
Flags: HW
AnchorPoint: "Anchor-10" 570 1171 basechar 0
AnchorPoint: "Anchor-7" 202 -828 basechar 0
LayerCount: 2
Fore
SplineSet
787 -10 m 0
 865 -10 926 37 926 121 c 0
 926 221 742 333 629 394 c 1
 627 317 627 252 627 163 c 0
 627 48 680 -10 787 -10 c 0
1244 180 m 2
 1255 180 l 2
 1271 180 1279 154 1279 102 c 2
 1279 77 l 2
 1279 26 1271 0 1255 0 c 2
 1248 0 l 2
 1174 0 1110 25 1057 76 c 1
 1004 -103 910 -193 775 -193 c 0
 587 -193 492 -76 491 158 c 0
 491 209 492 261 493 312 c 1
 374 276 291 218 247 144 c 1
 261 -479 l 2
 262 -521 229 -578 161 -649 c 0
 137 -673 118 -676 116 -629 c 0
 108 -438 101 -233 101 -19 c 0
 101 237 221 452 517 493 c 1
 534 592 551 676 592 645 c 2
 1099 257 l 2
 1165 206 1213 180 1244 180 c 2
EndSplineSet
EndChar

StartChar: uniFEE3
Encoding: 65251 65251 235
Width: 1008
GlyphClass: 2
Flags: HW
AnchorPoint: "Anchor-10" 544 1121 basechar 0
AnchorPoint: "Anchor-7" 517 -259 basechar 0
LayerCount: 2
Fore
SplineSet
-5 0 m 2
 -42 0 -60 26 -60 77 c 2
 -60 102 l 2
 -60 154 -42 180 -5 180 c 2
 11 180 l 2
 73 180 129 223 276 425 c 0
 390 582 484 694 606 694 c 0
 792 694 907 445 907 290 c 0
 907 94 772 -21 690 -21 c 0
 598 -21 467 46 296 180 c 1
 205 60 110 0 12 0 c 2
 -5 0 l 2
675 174 m 0
 733 174 772 219 772 279 c 0
 772 371 677 509 605 509 c 0
 548 509 478 449 396 330 c 1
 517 226 610 174 675 174 c 0
EndSplineSet
EndChar

StartChar: uniFEE4
Encoding: 65252 65252 236
Width: 1145
GlyphClass: 2
Flags: HW
AnchorPoint: "Anchor-10" 573 1072 basechar 0
AnchorPoint: "Anchor-7" 517 -277 basechar 0
LayerCount: 2
Fore
SplineSet
416 285 m 1
 527 188 615 140 678 140 c 0
 749 140 784 177 784 251 c 0
 784 341 697 459 611 459 c 0
 561 459 496 401 416 285 c 1
-5 180 m 2
 31 180 l 2
 115 180 163 215 295 381 c 0
 455 583 524 633 622 633 c 0
 773 633 869 459 945 302 c 0
 984 221 1046 180 1133 180 c 2
 1151 180 l 2
 1167 180 1175 154 1175 102 c 2
 1175 77 l 2
 1175 26 1167 0 1151 0 c 2
 1133 0 l 2
 1038 0 957 37 888 111 c 1
 828 5 761 -50 687 -50 c 0
 595 -50 468 14 306 140 c 1
 232 47 140 0 32 0 c 2
 -5 0 l 2
 -42 0 -60 26 -60 77 c 2
 -60 102 l 2
 -60 154 -42 180 -5 180 c 2
EndSplineSet
EndChar

StartChar: uniFEEA
Encoding: 65258 65258 242
Width: 1036
GlyphClass: 2
Flags: HW
AnchorPoint: "Anchor-10" 587 1209 basechar 0
AnchorPoint: "Anchor-7" 433 -196 basechar 0
LayerCount: 2
Fore
SplineSet
504 328 m 0x70
 551 328 607 331 655 333 c 1
 588 633 l 1
 393 572 227 511 227 422 c 0
 227 350 338 328 504 328 c 0x70
1042 0 m 2xb0
 990 0 l 2xb0
 842 0 740 79 684 237 c 1
 512 135 l 1x70
 259 139 122 181 102 261 c 0
 96 285 92 329 92 386 c 0
 92 590 253 700 555 803 c 1
 542 870 l 1
 623 966 l 2
 650 999 664 988 675 933 c 2
 782 405 l 2
 812 255 882 180 991 180 c 2
 1042 180 l 2
 1058 180 1066 154 1066 102 c 2
 1066 77 l 2
 1066 26 1058 0 1042 0 c 2xb0
EndSplineSet
EndChar

StartChar: uniFEEB
Encoding: 65259 65259 243
Width: 1226
GlyphClass: 2
Flags: HW
AnchorPoint: "Anchor-10" 538 1341 basechar 0
AnchorPoint: "Anchor-7" 526 -214 basechar 0
LayerCount: 2
Fore
SplineSet
652 601 m 0
 652 672 592 721 506 721 c 0
 376 721 284 548 284 488 c 0
 284 409 421 358 505 337 c 1
 576 384 652 495 652 601 c 0
773 619 m 1
 773 485 736 383 644 288 c 1
 761 247 855 225 926 221 c 1
 968 291 990 352 990 403 c 0
 990 501 908 555 773 619 c 1
867 59 m 0
 804 59 683 87 502 142 c 1
 356 47 205 0 48 0 c 2
 -5 0 l 2
 -42 0 -60 26 -60 77 c 2
 -60 102 l 2
 -60 154 -42 180 -5 180 c 0
 210 180 276 189 348 215 c 1
 214 264 143 344 143 453 c 0
 143 599 251 747 389 830 c 1
 258 884 l 1
 320 1057 l 1
 701 877 l 2
 984 743 1126 590 1126 417 c 0
 1126 269 1017 59 867 59 c 0
EndSplineSet
EndChar

StartChar: uniFEEC
Encoding: 65260 65260 244
Width: 928
GlyphClass: 2
Flags: HW
AnchorPoint: "Anchor-7" 340 -726 basechar 0
AnchorPoint: "Anchor-10" 440 1211 basechar 0
LayerCount: 2
Fore
SplineSet
291 183 m 1
 501 190 606 247 606 355 c 0
 606 421 552 516 443 639 c 1
 372 528 321 376 291 183 c 1
727 406 m 0
 727 147 544 24 303 -1 c 1
 350 -121 429 -224 541 -309 c 1
 580 17 704 180 911 180 c 2
 934 180 l 2
 950 180 958 154 958 102 c 2
 958 77 l 2
 958 26 950 0 934 0 c 2
 904 0 l 2
 765 0 696 -85 696 -257 c 0
 696 -321 704 -379 719 -430 c 1
 586 -551 l 1
 340 -375 202 -191 172 0 c 1
 -5 0 l 2
 -42 0 -60 26 -60 77 c 2
 -60 102 l 2
 -60 154 -42 180 -5 180 c 2
 164 180 l 1
 199 529 366 841 459 841 c 0
 502 841 727 659 727 406 c 0
EndSplineSet
EndChar

StartChar: uniFEEE
Encoding: 65262 65262 246
Width: 816
GlyphClass: 2
Flags: HW
AnchorPoint: "Anchor-7" 356 -678 basechar 0
AnchorPoint: "Anchor-10" 406 1186 basechar 0
LayerCount: 2
Fore
SplineSet
412 180 m 0
 482 180 510 180 564 181 c 1
 552 331 508 491 382 491 c 0
 297 491 241 383 241 278 c 0
 241 186 320 180 412 180 c 0
61 -402 m 1
 345 -323 510 -190 555 0 c 1
 242 0 95 28 95 239 c 0
 95 451 203 668 395 668 c 0
 614 668 704 433 708 180 c 1
 822 180 l 2
 838 180 846 154 846 102 c 2
 846 77 l 2
 846 26 838 0 822 0 c 2
 699 0 l 1
 654 -280 433 -468 174 -535 c 0
 149 -542 129 -538 114 -520 c 2
 64 -460 l 2
 47 -440 31 -410 61 -402 c 1
EndSplineSet
EndChar

StartChar: uniFEF0
Encoding: 65264 65264 248
Width: 1441
GlyphClass: 2
Flags: HW
AnchorPoint: "Anchor-10" 685 784 basechar 0
AnchorPoint: "Anchor-7" 646 -714 basechar 0
LayerCount: 2
Fore
SplineSet
672 -359 m 0
 1051 -359 1163 -195 1163 -143 c 0
 1163 -45 1024 -6 878 6 c 0
 830 10 826 22 833 45 c 2
 876 180 l 1
 1447 180 l 2
 1463 180 1471 154 1471 102 c 2
 1471 77 l 2
 1471 26 1463 0 1447 0 c 2
 1251 1 l 1
 1292 -28 1312 -73 1312 -144 c 0
 1312 -278 1124 -539 667 -539 c 0
 331 -539 107 -365 107 -35 c 0
 107 101 140 241 205 385 c 1
 315 352 l 1
 277 227 258 114 258 13 c 0
 258 -235 396 -359 672 -359 c 0
EndSplineSet
EndChar

StartChar: uniFEFB
Encoding: 65275 65275 259
Width: 1197
GlyphClass: 3
Flags: HW
AnchorPoint: "Anchor-9" 201 1398 baselig 1
AnchorPoint: "Anchor-9" 908 1536 baselig 0
AnchorPoint: "Anchor-6" 900 -179 baselig 0
AnchorPoint: "Anchor-6" 263 -264 baselig 1
LayerCount: 2
Fore
SplineSet
602 197 m 1
 502 529 335 853 102 1169 c 1
 237 1270 l 2
 253 1282 260 1274 266 1264 c 0
 447 971 598 635 721 253 c 1
 858 330 905 407 905 564 c 0
 905 700 886 950 849 1315 c 1
 985 1399 l 2
 1011 1415 1023 1409 1025 1380 c 0
 1038 1132 1049 906 1049 644 c 0
 1049 147 781 -26 233 -26 c 1
 144 107 l 2
 134 122 135 130 147 130 c 0
 357 144 508 167 602 197 c 1
EndSplineSet
LCarets2: 1 0
Ligature2: "'rlig' Required Ligatures in Arabic lookup 4 subtable" uniFEDF uniFE8E
EndChar

StartChar: uniFEFC
Encoding: 65276 65276 260
Width: 1281
GlyphClass: 3
Flags: HW
AnchorPoint: "Anchor-9" 908 1536 baselig 0
AnchorPoint: "Anchor-9" 201 1398 baselig 1
AnchorPoint: "Anchor-6" 932 -210 baselig 0
AnchorPoint: "Anchor-6" 259 -247 baselig 1
LayerCount: 2
Fore
SplineSet
721 253 m 1
 858 333 906 448 906 628 c 0
 906 717 887 946 849 1314 c 1
 996 1401 l 2
 1014 1412 1024 1403 1025 1375 c 2
 1053 542 l 2
 1061 303 1126 183 1247 181 c 1
 1287 180 l 2
 1303 180 1311 154 1311 102 c 2
 1311 77 l 2
 1311 26 1303 0 1287 0 c 2
 1247 0 l 2
 1091 0 992 88 951 265 c 1
 825 72 585 -25 233 -26 c 1
 144 107 l 2
 134 122 135 130 147 130 c 0
 357 144 508 167 602 197 c 1
 502 529 335 853 102 1169 c 1
 237 1270 l 2
 246 1277 256 1280 265 1266 c 0
 445 972 597 636 721 253 c 1
EndSplineSet
LCarets2: 1 0
Ligature2: "'rlig' Required Ligatures in Arabic lookup 4 subtable" uniFEE0 uniFE8E
EndChar

StartChar: arabic_dot
Encoding: 65536 -1 261
Width: 233
GlyphClass: 2
Flags: HW
LayerCount: 2
Fore
SplineSet
128 263 m 2
 252 139 l 2
 258 133 257 126 249 118 c 2
 131 -1 l 2
 121 -10 111 -9 102 -0 c 2
 -14 116 l 2
 -23 125 -23 134 -14 144 c 2
 105 263 l 2
 113 270 120 271 128 263 c 2
EndSplineSet
EndChar

StartChar: arabic_2dots
Encoding: 65537 -1 262
Width: 612
GlyphClass: 2
Flags: HW
LayerCount: 2
Fore
SplineSet
467 253 m 2
 585 135 l 2
 590 129 589 122 582 115 c 2
 469 1 l 2
 460 -8 451 -8 442 1 c 2
 330 113 l 2
 321 122 322 131 331 140 c 2
 444 253 l 2
 451 260 459 260 467 253 c 2
166 253 m 2
 284 135 l 2
 289 129 288 122 281 115 c 2
 168 1 l 2
 159 -8 150 -8 141 1 c 2
 29 113 l 2
 20 122 21 131 30 140 c 2
 143 253 l 2
 150 260 158 260 166 253 c 2
EndSplineSet
EndChar

StartChar: arabic_3dots
Encoding: 65538 -1 263
Width: 590
GlyphClass: 2
Flags: HW
LayerCount: 2
Fore
SplineSet
156 219 m 2
 268 107 l 2
 272 103 273 99 268 94 c 2
 158 -16 l 2
 152 -22 146 -22 140 -16 c 2
 33 92 l 2
 27 98 28 104 34 110 c 2
 143 219 l 2
 148 223 152 223 156 219 c 2
302 446 m 2
 413 335 l 2
 418 330 419 325 414 320 c 2
 305 211 l 2
 299 205 292 205 286 211 c 2
 179 318 l 2
 173 324 174 330 180 336 c 2
 289 446 l 2
 293 450 298 450 302 446 c 2
448 219 m 2
 560 107 l 2
 564 103 565 99 560 94 c 2
 450 -16 l 2
 444 -22 438 -22 432 -16 c 2
 325 92 l 2
 319 98 320 104 326 110 c 2
 435 219 l 2
 440 223 444 223 448 219 c 2
EndSplineSet
EndChar

StartChar: arabic_3dots_a
Encoding: 65539 -1 264
Width: 636
GlyphClass: 2
Flags: HW
LayerCount: 2
Fore
SplineSet
327 31 m 2
 437 -79 l 2
 442 -84 441 -89 437 -93 c 2
 325 -205 l 2
 321 -209 317 -209 312 -205 c 2
 203 -96 l 2
 197 -90 196 -83 202 -77 c 2
 309 30 l 2
 314 35 321 37 327 31 c 2
473 257 m 2
 583 147 l 2
 588 142 587 137 583 133 c 2
 471 21 l 2
 467 17 463 17 458 21 c 2
 349 130 l 2
 343 136 342 143 348 149 c 2
 455 256 l 2
 460 261 467 263 473 257 c 2
181 257 m 2
 291 147 l 2
 296 142 295 137 291 133 c 2
 179 21 l 2
 175 17 171 17 166 21 c 2
 57 130 l 2
 51 136 50 143 56 149 c 2
 163 256 l 2
 168 261 175 263 181 257 c 2
EndSplineSet
EndChar

StartChar: uni066E.fina
Encoding: 65540 -1 265
Width: 1942
GlyphClass: 2
Flags: HW
AnchorPoint: "Anchor-10" 1040 1793 basechar 0
AnchorPoint: "Anchor-7" 971 -376 basechar 0
LayerCount: 2
Fore
SplineSet
816 2 m 0
 416 2 104 98 104 455 c 0
 104 568 128 672 175 767 c 1
 276 732 l 1
 254 653 244 583 244 524 c 0
 244 268 488 181 815 181 c 0
 1510 181 1575 368 1591 542 c 1
 1707 529 l 1
 1704 495 1703 476 1703 437 c 0
 1703 266 1775 180 1921 180 c 2
 1948 180 l 2
 1964 180 1972 154 1972 102 c 2
 1972 77 l 2
 1972 26 1964 0 1948 0 c 2
 1929 0 l 2
 1745 0 1635 76 1599 226 c 1
 1486 77 1226 2 816 2 c 0
EndSplineSet
EndChar

StartChar: uni06A1.fina
Encoding: 65543 -1 266
Width: 1893
GlyphClass: 2
Flags: HW
AnchorPoint: "Anchor-10" 746 1973 basechar 0
AnchorPoint: "Anchor-7" 933 -461 basechar 0
LayerCount: 2
Fore
SplineSet
817 2 m 0
 417 2 105 99 105 455 c 0
 105 568 129 672 176 767 c 1
 277 732 l 1
 255 653 245 583 245 524 c 0
 245 251 521 181 819 181 c 0
 1020 181 1180 194 1298 221 c 1
 1211 288 1168 373 1168 476 c 0
 1168 653 1317 835 1472 835 c 0
 1620 835 1774 667 1774 495 c 0
 1774 383 1723 289 1622 213 c 1
 1689 191 1770 180 1865 180 c 2
 1899 180 l 2
 1915 180 1923 154 1923 102 c 2
 1923 77 l 2
 1923 26 1915 0 1899 0 c 2
 1862 0 l 2
 1712 0 1582 39 1470 118 c 1
 1330 41 1112 2 817 2 c 0
1470 640 m 0
 1406 640 1315 558 1315 460 c 0
 1315 365 1448 273 1480 273 c 0
 1522 273 1626 398 1626 470 c 0
 1626 552 1537 640 1470 640 c 0
EndSplineSet
EndChar

StartChar: uni06A1.init
Encoding: 65544 -1 267
Width: 832
GlyphClass: 2
Flags: HW
AnchorPoint: "Anchor-10" 487 2032 basechar 0
AnchorPoint: "Anchor-7" 405 -374 basechar 0
LayerCount: 2
Fore
SplineSet
-5 180 m 2
 179 180 l 2
 457 180 586 250 586 394 c 1
 517 381 461 373 416 373 c 0
 230 375 120 423 120 586 c 0
 120 822 248 1022 411 1022 c 0
 644 1022 731 748 731 464 c 0
 731 69 474 0 183 0 c 2
 -5 0 l 2
 -42 0 -60 26 -60 77 c 2
 -60 102 l 2
 -60 154 -42 180 -5 180 c 2
412 551 m 0
 481 551 539 560 585 578 c 1
 574 712 530 833 408 833 c 0
 322 833 251 759 251 642 c 0
 251 573 331 551 412 551 c 0
EndSplineSet
EndChar

StartChar: uni06A1.medi
Encoding: 65545 -1 268
Width: 907
GlyphClass: 2
Flags: HW
AnchorPoint: "Anchor-10" 435 1479 basechar 0
AnchorPoint: "Anchor-7" 409 -209 basechar 0
LayerCount: 2
Fore
SplineSet
-5 180 m 2
 28 180 l 2
 154 180 248 193 310 219 c 1
 223 286 179 371 179 476 c 0
 179 650 322 833 484 833 c 0
 641 833 785 665 785 495 c 0
 785 382 735 288 633 211 c 1
 692 190 774 180 878 180 c 2
 913 180 l 2
 929 180 937 154 937 102 c 2
 937 77 l 2
 937 26 929 0 913 0 c 2
 884 0 l 2
 741 0 606 39 480 118 c 1
 362 39 212 0 28 0 c 2
 -5 0 l 2
 -42 0 -60 26 -60 77 c 2
 -60 102 l 2
 -60 154 -42 180 -5 180 c 2
479 638 m 0
 419 638 326 556 326 458 c 0
 326 378 442 271 491 271 c 0
 544 271 637 400 637 467 c 0
 637 549 541 638 479 638 c 0
EndSplineSet
EndChar

StartChar: uni066F.fina
Encoding: 65546 -1 269
Width: 1409
GlyphClass: 2
Flags: HW
AnchorPoint: "Anchor-10" 460 754 basechar 0
AnchorPoint: "Anchor-7" 381 -884 basechar 0
LayerCount: 2
Fore
SplineSet
1033 179 m 0
 1070 179 1098 179 1154 181 c 1
 1144 324 1097 491 981 491 c 0
 857 491 831 331 831 278 c 0
 831 183 909 179 1033 179 c 0
693 238 m 0
 693 445 798 668 990 668 c 0
 1199 668 1288 432 1292 180 c 1
 1415 180 l 2
 1431 180 1439 154 1439 102 c 2
 1439 77 l 2
 1439 26 1431 0 1415 0 c 2
 1291 0 l 1
 1261 -359 1050 -539 656 -539 c 0
 322 -539 102 -363 102 -35 c 0
 102 101 135 241 200 385 c 1
 310 352 l 1
 272 227 253 114 253 13 c 0
 253 -235 391 -359 668 -359 c 0
 943 -359 1138 -263 1149 1 c 1
 1021 0 l 1
 811 0 693 53 693 238 c 0
EndSplineSet
EndChar

StartChar: arabic_gaf_bar
Encoding: 65550 -1 270
Width: 788
GlyphClass: 2
Flags: HW
LayerCount: 2
Fore
SplineSet
772 2081 m 2
 755 1989 l 1
 41 1736 l 1
 62 1849 l 1
 756 2100 l 2
 771 2105 776 2099 772 2081 c 2
EndSplineSet
EndChar

StartChar: guillemotleft
Encoding: 171 171 279
Width: 1236
Flags: HW
LayerCount: 2
Fore
SplineSet
400 15 m 2
 210 277 114 432 114 476 c 0
 114 520 210 675 400 937 c 2
 409 950 l 1
 596 950 l 1
 568 908 l 2
 409 670 323 529 323 477 c 0
 323 423 405 279 568 44 c 2
 596 2 l 1
 409 2 l 1
 400 15 l 2
881 15 m 2
 691 277 595 432 595 476 c 0
 595 520 691 675 881 937 c 2
 890 950 l 1
 1077 950 l 1
 1049 908 l 2
 890 670 804 529 804 477 c 0
 804 423 886 279 1049 44 c 2
 1077 2 l 1
 890 2 l 1
 881 15 l 2
EndSplineSet
EndChar

StartChar: guillemotright
Encoding: 187 187 280
Width: 1236
Flags: HW
LayerCount: 2
Fore
SplineSet
355 15 m 2
 346 2 l 1
 159 2 l 1
 187 44 l 2
 350 279 432 423 432 477 c 0
 432 529 346 670 187 908 c 2
 159 950 l 1
 346 950 l 1
 355 937 l 2
 545 675 641 520 641 476 c 0
 641 432 545 277 355 15 c 2
836 15 m 2
 827 2 l 1
 640 2 l 1
 668 44 l 2
 831 279 913 423 913 477 c 0
 913 529 827 670 668 908 c 2
 640 950 l 1
 827 950 l 1
 836 937 l 2
 1026 675 1122 520 1122 476 c 0
 1122 432 1026 277 836 15 c 2
EndSplineSet
EndChar

StartChar: exclam
Encoding: 33 33 289
Width: 676
Flags: HW
LayerCount: 2
Fore
SplineSet
387 519 m 2
 386 504 376 497 347 497 c 2
 327 497 l 2
 300 497 288 504 287 520 c 2
 225 1258 l 2
 225 1267 225 1276 225 1285 c 0
 225 1365 253 1405 312 1405 c 2
 346 1405 l 2
 412 1404 441 1377 441 1288 c 0
 441 1279 441 1269 440 1259 c 2
 387 519 l 2
338 21 m 0
 263 21 200 84 200 159 c 0
 200 234 263 297 338 297 c 0
 414 297 475 235 475 159 c 0
 475 84 413 21 338 21 c 0
EndSplineSet
EndChar

StartChar: period
Encoding: 46 46 290
Width: 676
Flags: HW
LayerCount: 2
Fore
SplineSet
338 21 m 0
 263 21 200 84 200 159 c 0
 200 234 263 297 338 297 c 0
 414 297 475 235 475 159 c 0
 475 84 413 21 338 21 c 0
EndSplineSet
EndChar

StartChar: colon
Encoding: 58 58 291
Width: 676
Flags: HW
LayerCount: 2
Fore
SplineSet
338 681 m 0
 263 681 200 744 200 819 c 0
 200 894 263 957 338 957 c 0
 414 957 475 895 475 819 c 0
 475 744 413 681 338 681 c 0
338 21 m 0
 263 21 200 84 200 159 c 0
 200 234 263 297 338 297 c 0
 414 297 475 235 475 159 c 0
 475 84 413 21 338 21 c 0
EndSplineSet
EndChar

StartChar: uniFDFC
Encoding: 65020 65020 292
Width: 2565
Flags: HW
LayerCount: 2
Fore
SplineSet
1514 195 m 1
 1664 46 l 1
 1514 -104 l 1
 1365 46 l 1
 1514 195 l 1
1832 195 m 1
 1981 46 l 1
 1832 -104 l 1
 1682 46 l 1
 1832 195 l 1
2272 666 m 17
 2367 526 2411 393 2411 253 c 0
 2411 -241 1924 -400 1851 -400 c 0
 1835 -400 1818 -388 1802 -371 c 0
 1788 -356 1774 -337 1763 -322 c 0
 1747 -300 1730 -272 1760 -264 c 0
 2055 -183 2261 -19 2261 208 c 0
 2261 299 2223 398 2146 507 c 1
 2272 666 l 17
1283 804 m 0
 1283 1045 1273 1204 1255 1282 c 1
 1387 1375 l 2
 1406 1388 1419 1377 1420 1341 c 0
 1426 1180 1426 903 1426 738 c 0
 1426 571 1464 521 1626 521 c 2
 1677 521 l 2
 1776 521 1843 548 1843 620 c 0
 1843 678 1820 762 1784 851 c 1
 1885 966 l 2
 1911 995 1928 977 1942 933 c 0
 1970 838 1984 753 1984 679 c 0
 1984 460 1867 341 1658 341 c 2
 1574 341 l 2
 1320 341 1283 527 1283 804 c 0
1060 342 m 0
 1060 -31 951 -216 606 -216 c 0
 323 -216 141 -61 141 218 c 0
 141 334 162 438 204 531 c 1
 304 498 l 1
 284 433 274 356 274 267 c 0
 274 71 409 -39 609 -39 c 0
 816 -39 921 44 921 211 c 0
 921 452 888 1064 853 1279 c 1
 975 1368 l 2
 1004 1389 1022 1380 1024 1333 c 0
 1039 1003 1060 531 1060 342 c 0
EndSplineSet
EndChar

StartChar: uniFD3E
Encoding: 64830 64830 294
Width: 1466
Flags: HW
LayerCount: 2
Fore
SplineSet
701 658 m 4
 701 615 738 578 783 578 c 4
 829 578 865 615 865 663 c 4
 865 706 825 742 782 742 c 4
 734 742 701 701 701 658 c 4
723 187 m 0
 768 -15 868 -179 1022 -302 c 1
 937 -144 882 21 855 189 c 0
 852 209 857 224 871 238 c 2
 912 280 l 2
 923 291 937 297 953 297 c 2
 1143 297 l 1
 1143 1027 l 1
 953 1027 l 2
 937 1027 923 1033 912 1044 c 2
 868 1089 l 2
 854 1102 849 1119 852 1138 c 0
 884 1339 945 1522 1035 1687 c 1
 868 1557 760 1371 713 1128 c 0
 711 1116 705 1106 697 1098 c 2
 643 1044 l 2
 632 1033 619 1027 603 1027 c 2
 412 1027 l 1
 412 837 l 2
 412 821 407 808 396 797 c 2
 261 662 l 1
 396 527 l 2
 407 516 412 503 412 487 c 2
 412 297 l 1
 603 297 l 2
 619 297 632 291 643 280 c 2
 708 215 l 2
 716 207 721 197 723 187 c 0
962 654 m 4
 962 556 875 474 777 474 c 4
 672 474 592 559 592 665 c 4
 592 763 679 845 777 845 c 4
 882 845 962 760 962 654 c 4
1267 1802 m 1
 1120 1668 1021 1449 969 1148 c 1
 976 1141 l 1
 1200 1141 l 2
 1238 1141 1257 1118 1257 1084 c 2
 1257 240 l 2
 1256 202 1237 183 1200 183 c 2
 976 183 l 1
 972 179 l 1
 1026 -109 1125 -307 1264 -422 c 0
 1305 -456 1275 -489 1213 -522 c 1
 898 -429 699 -206 616 145 c 1
 579 183 l 1
 354 183 l 2
 328 183 298 206 298 240 c 2
 298 463 l 1
 140 622 l 2
 129 633 123 648 123 663 c 0
 123 677 128 690 140 702 c 2
 298 861 l 1
 298 1084 l 2
 298 1119 332 1141 355 1141 c 2
 579 1141 l 1
 604 1166 l 1
 682 1557 886 1801 1213 1898 c 1
 1257 1915 1283 1862 1267 1802 c 1
EndSplineSet
EndChar

StartChar: uniFD3F
Encoding: 64831 64831 295
Width: 1466
Flags: HW
LayerCount: 2
Fore
SplineSet
199 1802 m 1
 183 1862 209 1915 253 1898 c 1
 580 1801 784 1557 862 1166 c 1
 887 1141 l 1
 1111 1141 l 2
 1134 1141 1168 1119 1168 1084 c 2
 1168 861 l 1
 1326 702 l 2
 1338 690 1343 677 1343 663 c 0
 1343 648 1337 633 1326 622 c 2
 1168 463 l 1
 1168 240 l 2
 1168 206 1138 183 1112 183 c 2
 887 183 l 1
 850 145 l 1
 767 -206 568 -429 253 -522 c 1
 191 -489 161 -456 202 -422 c 0
 341 -307 440 -109 494 179 c 1
 490 183 l 1
 266 183 l 2
 229 183 210 202 209 240 c 2
 209 1084 l 2
 209 1118 228 1141 266 1141 c 2
 490 1141 l 1
 497 1148 l 1
 445 1449 346 1668 199 1802 c 1
504 654 m 4
 504 760 584 845 689 845 c 4
 787 845 874 763 874 665 c 4
 874 559 794 474 689 474 c 4
 591 474 504 556 504 654 c 4
743 187 m 0
 745 197 750 207 758 215 c 2
 823 280 l 2
 834 291 847 297 863 297 c 2
 1054 297 l 1
 1054 487 l 2
 1054 503 1059 516 1070 527 c 2
 1205 662 l 1
 1070 797 l 2
 1059 808 1054 821 1054 837 c 2
 1054 1027 l 1
 863 1027 l 2
 847 1027 834 1033 823 1044 c 2
 769 1098 l 2
 761 1106 755 1116 753 1128 c 0
 706 1371 598 1557 431 1687 c 1
 521 1522 582 1339 614 1138 c 0
 617 1119 612 1102 598 1089 c 2
 554 1044 l 2
 543 1033 529 1027 513 1027 c 2
 323 1027 l 1
 323 297 l 1
 513 297 l 2
 529 297 543 291 554 280 c 2
 595 238 l 2
 609 224 614 209 611 189 c 0
 584 21 529 -144 444 -302 c 1
 598 -179 698 -15 743 187 c 0
773 658 m 4
 773 701 740 742 692 742 c 4
 649 742 609 706 609 663 c 4
 609 615 645 578 691 578 c 4
 736 578 773 615 773 658 c 4
EndSplineSet
EndChar

StartChar: NameMe.303
Encoding: 65562 -1 296
Width: 556
Flags: HW
AnchorPoint: "Anchor-10" 255 1396 basechar 0
AnchorPoint: "Anchor-7" 211 -260 basechar 0
LayerCount: 2
Fore
SplineSet
-5 180 m 2
 17 180 l 2
 175 180 267 215 267 367 c 0
 267 586 267 657 212 1216 c 1
 344 1296 l 2
 371 1312 384 1306 386 1276 c 0
 394 1117 411 617 411 467 c 0
 411 137 333 0 11 0 c 2
 -5 0 l 2
 -42 0 -60 26 -60 77 c 2
 -60 102 l 2
 -60 154 -42 180 -5 180 c 2
EndSplineSet
EndChar

StartChar: NameMe.304
Encoding: 65563 -1 297
Width: 651
Flags: HW
LayerCount: 2
Fore
SplineSet
-5 180 m 2
 30 180 l 2
 218 180 269 269 269 434 c 0
 269 570 244 949 234 1082 c 1
 371 1166 l 2
 396 1181 408 1174 408 1143 c 2
 408 433 l 2
 408 264 480 180 623 180 c 2
 657 180 l 2
 673 180 681 154 681 102 c 2
 681 77 l 2
 681 26 673 0 657 0 c 2
 626 0 l 2
 494 0 394 49 325 148 c 1
 256 49 157 0 27 0 c 2
 -5 0 l 2
 -42 0 -60 26 -60 77 c 2
 -60 102 l 2
 -60 154 -42 180 -5 180 c 2
EndSplineSet
EndChar

StartChar: NameMe.306
Encoding: 65566 -1 299
Width: 541
Flags: HW
LayerCount: 2
Fore
SplineSet
298 552 m 0
 298 263 323 180 498 180 c 2
 547 180 l 2
 563 180 571 154 571 102 c 2
 571 77 l 2
 571 26 563 0 547 0 c 2
 493 0 l 2
 178 0 155 218 155 579 c 0
 155 795 139 998 120 1179 c 1
 241 1289 l 2
 263 1309 279 1298 281 1267 c 0
 292 1120 298 818 298 552 c 0
EndSplineSet
EndChar

StartChar: uni06C1
Encoding: 1729 1729 300
Width: 972
Flags: HW
AnchorPoint: "Anchor-7" 421 -224 basechar 0
AnchorPoint: "Anchor-10" 539 1110 basechar 0
LayerCount: 2
Fore
SplineSet
610 598 m 0
 766 598 782 468 782 294 c 0
 782 206 837 184 924 184 c 2
 992 184 l 25
 992 0 l 25
 903 0 l 2
 710 0 621 114 621 303 c 0
 621 462 578 456 505 381 c 0
 394 267 270 -16 233 -110 c 1
 93 -38 l 1
 180 199 363 598 610 598 c 0
EndSplineSet
EndChar

StartChar: NameMe.65567
Encoding: 65567 -1 304
Width: 678
Flags: HW
LayerCount: 2
Fore
SplineSet
107 -35 m 1
 147 -55 194 -64 248 -64 c 0
 424 -64 484 16 484 37 c 0
 484 56 450 72 351 101 c 0
 309 113 289 139 289 180 c 0
 289 299 410 445 549 445 c 0
 574 445 599 441 626 433 c 1
 623 407 616 368 604 317 c 1
 589 319 575 319 559 319 c 0
 481 319 411 271 385 213 c 1
 514 170 l 2
 553 157 574 126 574 77 c 0
 574 -85 418 -175 248 -175 c 0
 180 -175 120 -164 68 -143 c 1
 107 -35 l 1
EndSplineSet
EndChar

StartChar: NameMe.65541
Encoding: 65541 -1 305
Width: 576
Flags: HW
AnchorPoint: "Anchor-10" 323 1302 basechar 0
AnchorPoint: "Anchor-7" 351 -260 basechar 0
LayerCount: 2
Fore
SplineSet
-5 0 m 2
 -42 0 -60 26 -60 77 c 2
 -60 102 l 2
 -60 154 -42 180 -5 180 c 2
 78 180 l 2
 242 180 323 235 323 346 c 0
 323 406 299 502 251 636 c 1
 362 764 l 2
 372 776 384 767 397 739 c 0
 449 632 475 517 475 394 c 0
 475 151 310 0 81 0 c 2
 -5 0 l 2
EndSplineSet
EndChar

StartChar: NameMe.65542
Encoding: 65542 -1 306
Width: 688
Flags: HW
AnchorPoint: "Anchor-10" 392 1159 basechar 0
AnchorPoint: "Anchor-7" 351 -219 basechar 0
LayerCount: 2
Fore
SplineSet
-5 0 m 2
 -42 0 -60 26 -60 77 c 2
 -60 102 l 2
 -60 154 -42 180 -5 180 c 2
 85 180 l 2
 224 180 299 231 308 334 c 2
 327 540 l 1
 442 540 l 1
 462 333 l 2
 472 231 543 180 674 180 c 2
 694 180 l 2
 710 180 718 154 718 102 c 2
 718 77 l 2
 718 26 710 0 694 0 c 2
 676 0 l 2
 536 0 439 43 384 130 c 1
 321 43 223 0 90 0 c 2
 -5 0 l 2
EndSplineSet
EndChar
